<?xml version="1.0" encoding="utf-8" standalone="no"?>
<!DOCTYPE svg PUBLIC "-//W3C//DTD SVG 1.1//EN"
  "http://www.w3.org/Graphics/SVG/1.1/DTD/svg11.dtd">
<!-- Created with matplotlib (https://matplotlib.org/) -->
<svg height="343.8995pt" version="1.1" viewBox="0 0 457.603796 343.8995" width="457.603796pt" xmlns="http://www.w3.org/2000/svg" xmlns:xlink="http://www.w3.org/1999/xlink">
 <metadata>
  <rdf:RDF xmlns:cc="http://creativecommons.org/ns#" xmlns:dc="http://purl.org/dc/elements/1.1/" xmlns:rdf="http://www.w3.org/1999/02/22-rdf-syntax-ns#">
   <cc:Work>
    <dc:type rdf:resource="http://purl.org/dc/dcmitype/StillImage"/>
    <dc:date>2021-03-01T18:57:47.864447</dc:date>
    <dc:format>image/svg+xml</dc:format>
    <dc:creator>
     <cc:Agent>
      <dc:title>Matplotlib v3.3.4, https://matplotlib.org/</dc:title>
     </cc:Agent>
    </dc:creator>
   </cc:Work>
  </rdf:RDF>
 </metadata>
 <defs>
  <style type="text/css">*{stroke-linecap:butt;stroke-linejoin:round;}</style>
 </defs>
 <g id="figure_1">
  <g id="patch_1">
   <path d="M 0 343.8995 
L 457.603796 343.8995 
L 457.603796 0 
L 0 0 
z
" style="fill:#ffffff;"/>
  </g>
  <g id="axes_1">
   <g id="patch_2">
    <path d="M 50.14375 138.8545 
L 227.267406 138.8545 
L 227.267406 20.4945 
L 50.14375 20.4945 
z
" style="fill:#ffffff;"/>
   </g>
   <g id="matplotlib.axis_1">
    <g id="xtick_1">
     <g id="line2d_1">
      <defs>
       <path d="M 0 0 
L 0 3.5 
" id="m799a967eae" style="stroke:#000000;stroke-width:0.8;"/>
      </defs>
      <g>
       <use style="stroke:#000000;stroke-width:0.8;" x="58.194825" xlink:href="#m799a967eae" y="138.8545"/>
      </g>
     </g>
     <g id="text_1">
      <!-- 0 -->
      <g transform="translate(55.013575 153.452937)scale(0.1 -0.1)">
       <defs>
        <path d="M 31.78125 66.40625 
Q 24.171875 66.40625 20.328125 58.90625 
Q 16.5 51.421875 16.5 36.375 
Q 16.5 21.390625 20.328125 13.890625 
Q 24.171875 6.390625 31.78125 6.390625 
Q 39.453125 6.390625 43.28125 13.890625 
Q 47.125 21.390625 47.125 36.375 
Q 47.125 51.421875 43.28125 58.90625 
Q 39.453125 66.40625 31.78125 66.40625 
z
M 31.78125 74.21875 
Q 44.046875 74.21875 50.515625 64.515625 
Q 56.984375 54.828125 56.984375 36.375 
Q 56.984375 17.96875 50.515625 8.265625 
Q 44.046875 -1.421875 31.78125 -1.421875 
Q 19.53125 -1.421875 13.0625 8.265625 
Q 6.59375 17.96875 6.59375 36.375 
Q 6.59375 54.828125 13.0625 64.515625 
Q 19.53125 74.21875 31.78125 74.21875 
z
" id="DejaVuSans-48"/>
       </defs>
       <use xlink:href="#DejaVuSans-48"/>
      </g>
     </g>
    </g>
    <g id="xtick_2">
     <g id="line2d_2">
      <g>
       <use style="stroke:#000000;stroke-width:0.8;" x="85.957154" xlink:href="#m799a967eae" y="138.8545"/>
      </g>
     </g>
     <g id="text_2">
      <!-- 5 -->
      <g transform="translate(82.775904 153.452937)scale(0.1 -0.1)">
       <defs>
        <path d="M 10.796875 72.90625 
L 49.515625 72.90625 
L 49.515625 64.59375 
L 19.828125 64.59375 
L 19.828125 46.734375 
Q 21.96875 47.46875 24.109375 47.828125 
Q 26.265625 48.1875 28.421875 48.1875 
Q 40.625 48.1875 47.75 41.5 
Q 54.890625 34.8125 54.890625 23.390625 
Q 54.890625 11.625 47.5625 5.09375 
Q 40.234375 -1.421875 26.90625 -1.421875 
Q 22.3125 -1.421875 17.546875 -0.640625 
Q 12.796875 0.140625 7.71875 1.703125 
L 7.71875 11.625 
Q 12.109375 9.234375 16.796875 8.0625 
Q 21.484375 6.890625 26.703125 6.890625 
Q 35.15625 6.890625 40.078125 11.328125 
Q 45.015625 15.765625 45.015625 23.390625 
Q 45.015625 31 40.078125 35.4375 
Q 35.15625 39.890625 26.703125 39.890625 
Q 22.75 39.890625 18.8125 39.015625 
Q 14.890625 38.140625 10.796875 36.28125 
z
" id="DejaVuSans-53"/>
       </defs>
       <use xlink:href="#DejaVuSans-53"/>
      </g>
     </g>
    </g>
    <g id="xtick_3">
     <g id="line2d_3">
      <g>
       <use style="stroke:#000000;stroke-width:0.8;" x="113.719482" xlink:href="#m799a967eae" y="138.8545"/>
      </g>
     </g>
     <g id="text_3">
      <!-- 10 -->
      <g transform="translate(107.356982 153.452937)scale(0.1 -0.1)">
       <defs>
        <path d="M 12.40625 8.296875 
L 28.515625 8.296875 
L 28.515625 63.921875 
L 10.984375 60.40625 
L 10.984375 69.390625 
L 28.421875 72.90625 
L 38.28125 72.90625 
L 38.28125 8.296875 
L 54.390625 8.296875 
L 54.390625 0 
L 12.40625 0 
z
" id="DejaVuSans-49"/>
       </defs>
       <use xlink:href="#DejaVuSans-49"/>
       <use x="63.623047" xlink:href="#DejaVuSans-48"/>
      </g>
     </g>
    </g>
    <g id="xtick_4">
     <g id="line2d_4">
      <g>
       <use style="stroke:#000000;stroke-width:0.8;" x="141.481811" xlink:href="#m799a967eae" y="138.8545"/>
      </g>
     </g>
     <g id="text_4">
      <!-- 15 -->
      <g transform="translate(135.119311 153.452937)scale(0.1 -0.1)">
       <use xlink:href="#DejaVuSans-49"/>
       <use x="63.623047" xlink:href="#DejaVuSans-53"/>
      </g>
     </g>
    </g>
    <g id="xtick_5">
     <g id="line2d_5">
      <g>
       <use style="stroke:#000000;stroke-width:0.8;" x="169.244139" xlink:href="#m799a967eae" y="138.8545"/>
      </g>
     </g>
     <g id="text_5">
      <!-- 20 -->
      <g transform="translate(162.881639 153.452937)scale(0.1 -0.1)">
       <defs>
        <path d="M 19.1875 8.296875 
L 53.609375 8.296875 
L 53.609375 0 
L 7.328125 0 
L 7.328125 8.296875 
Q 12.9375 14.109375 22.625 23.890625 
Q 32.328125 33.6875 34.8125 36.53125 
Q 39.546875 41.84375 41.421875 45.53125 
Q 43.3125 49.21875 43.3125 52.78125 
Q 43.3125 58.59375 39.234375 62.25 
Q 35.15625 65.921875 28.609375 65.921875 
Q 23.96875 65.921875 18.8125 64.3125 
Q 13.671875 62.703125 7.8125 59.421875 
L 7.8125 69.390625 
Q 13.765625 71.78125 18.9375 73 
Q 24.125 74.21875 28.421875 74.21875 
Q 39.75 74.21875 46.484375 68.546875 
Q 53.21875 62.890625 53.21875 53.421875 
Q 53.21875 48.921875 51.53125 44.890625 
Q 49.859375 40.875 45.40625 35.40625 
Q 44.1875 33.984375 37.640625 27.21875 
Q 31.109375 20.453125 19.1875 8.296875 
z
" id="DejaVuSans-50"/>
       </defs>
       <use xlink:href="#DejaVuSans-50"/>
       <use x="63.623047" xlink:href="#DejaVuSans-48"/>
      </g>
     </g>
    </g>
    <g id="xtick_6">
     <g id="line2d_6">
      <g>
       <use style="stroke:#000000;stroke-width:0.8;" x="197.006468" xlink:href="#m799a967eae" y="138.8545"/>
      </g>
     </g>
     <g id="text_6">
      <!-- 25 -->
      <g transform="translate(190.643968 153.452937)scale(0.1 -0.1)">
       <use xlink:href="#DejaVuSans-50"/>
       <use x="63.623047" xlink:href="#DejaVuSans-53"/>
      </g>
     </g>
    </g>
    <g id="xtick_7">
     <g id="line2d_7">
      <g>
       <use style="stroke:#000000;stroke-width:0.8;" x="224.768796" xlink:href="#m799a967eae" y="138.8545"/>
      </g>
     </g>
     <g id="text_7">
      <!-- 30 -->
      <g transform="translate(218.406296 153.452937)scale(0.1 -0.1)">
       <defs>
        <path d="M 40.578125 39.3125 
Q 47.65625 37.796875 51.625 33 
Q 55.609375 28.21875 55.609375 21.1875 
Q 55.609375 10.40625 48.1875 4.484375 
Q 40.765625 -1.421875 27.09375 -1.421875 
Q 22.515625 -1.421875 17.65625 -0.515625 
Q 12.796875 0.390625 7.625 2.203125 
L 7.625 11.71875 
Q 11.71875 9.328125 16.59375 8.109375 
Q 21.484375 6.890625 26.8125 6.890625 
Q 36.078125 6.890625 40.9375 10.546875 
Q 45.796875 14.203125 45.796875 21.1875 
Q 45.796875 27.640625 41.28125 31.265625 
Q 36.765625 34.90625 28.71875 34.90625 
L 20.21875 34.90625 
L 20.21875 43.015625 
L 29.109375 43.015625 
Q 36.375 43.015625 40.234375 45.921875 
Q 44.09375 48.828125 44.09375 54.296875 
Q 44.09375 59.90625 40.109375 62.90625 
Q 36.140625 65.921875 28.71875 65.921875 
Q 24.65625 65.921875 20.015625 65.03125 
Q 15.375 64.15625 9.8125 62.3125 
L 9.8125 71.09375 
Q 15.4375 72.65625 20.34375 73.4375 
Q 25.25 74.21875 29.59375 74.21875 
Q 40.828125 74.21875 47.359375 69.109375 
Q 53.90625 64.015625 53.90625 55.328125 
Q 53.90625 49.265625 50.4375 45.09375 
Q 46.96875 40.921875 40.578125 39.3125 
z
" id="DejaVuSans-51"/>
       </defs>
       <use xlink:href="#DejaVuSans-51"/>
       <use x="63.623047" xlink:href="#DejaVuSans-48"/>
      </g>
     </g>
    </g>
    <g id="text_8">
     <!-- Iteration -->
     <g transform="translate(117.496984 167.131062)scale(0.1 -0.1)">
      <defs>
       <path d="M 9.8125 72.90625 
L 19.671875 72.90625 
L 19.671875 0 
L 9.8125 0 
z
" id="DejaVuSans-73"/>
       <path d="M 18.3125 70.21875 
L 18.3125 54.6875 
L 36.8125 54.6875 
L 36.8125 47.703125 
L 18.3125 47.703125 
L 18.3125 18.015625 
Q 18.3125 11.328125 20.140625 9.421875 
Q 21.96875 7.515625 27.59375 7.515625 
L 36.8125 7.515625 
L 36.8125 0 
L 27.59375 0 
Q 17.1875 0 13.234375 3.875 
Q 9.28125 7.765625 9.28125 18.015625 
L 9.28125 47.703125 
L 2.6875 47.703125 
L 2.6875 54.6875 
L 9.28125 54.6875 
L 9.28125 70.21875 
z
" id="DejaVuSans-116"/>
       <path d="M 56.203125 29.59375 
L 56.203125 25.203125 
L 14.890625 25.203125 
Q 15.484375 15.921875 20.484375 11.0625 
Q 25.484375 6.203125 34.421875 6.203125 
Q 39.59375 6.203125 44.453125 7.46875 
Q 49.3125 8.734375 54.109375 11.28125 
L 54.109375 2.78125 
Q 49.265625 0.734375 44.1875 -0.34375 
Q 39.109375 -1.421875 33.890625 -1.421875 
Q 20.796875 -1.421875 13.15625 6.1875 
Q 5.515625 13.8125 5.515625 26.8125 
Q 5.515625 40.234375 12.765625 48.109375 
Q 20.015625 56 32.328125 56 
Q 43.359375 56 49.78125 48.890625 
Q 56.203125 41.796875 56.203125 29.59375 
z
M 47.21875 32.234375 
Q 47.125 39.59375 43.09375 43.984375 
Q 39.0625 48.390625 32.421875 48.390625 
Q 24.90625 48.390625 20.390625 44.140625 
Q 15.875 39.890625 15.1875 32.171875 
z
" id="DejaVuSans-101"/>
       <path d="M 41.109375 46.296875 
Q 39.59375 47.171875 37.8125 47.578125 
Q 36.03125 48 33.890625 48 
Q 26.265625 48 22.1875 43.046875 
Q 18.109375 38.09375 18.109375 28.8125 
L 18.109375 0 
L 9.078125 0 
L 9.078125 54.6875 
L 18.109375 54.6875 
L 18.109375 46.1875 
Q 20.953125 51.171875 25.484375 53.578125 
Q 30.03125 56 36.53125 56 
Q 37.453125 56 38.578125 55.875 
Q 39.703125 55.765625 41.0625 55.515625 
z
" id="DejaVuSans-114"/>
       <path d="M 34.28125 27.484375 
Q 23.390625 27.484375 19.1875 25 
Q 14.984375 22.515625 14.984375 16.5 
Q 14.984375 11.71875 18.140625 8.90625 
Q 21.296875 6.109375 26.703125 6.109375 
Q 34.1875 6.109375 38.703125 11.40625 
Q 43.21875 16.703125 43.21875 25.484375 
L 43.21875 27.484375 
z
M 52.203125 31.203125 
L 52.203125 0 
L 43.21875 0 
L 43.21875 8.296875 
Q 40.140625 3.328125 35.546875 0.953125 
Q 30.953125 -1.421875 24.3125 -1.421875 
Q 15.921875 -1.421875 10.953125 3.296875 
Q 6 8.015625 6 15.921875 
Q 6 25.140625 12.171875 29.828125 
Q 18.359375 34.515625 30.609375 34.515625 
L 43.21875 34.515625 
L 43.21875 35.40625 
Q 43.21875 41.609375 39.140625 45 
Q 35.0625 48.390625 27.6875 48.390625 
Q 23 48.390625 18.546875 47.265625 
Q 14.109375 46.140625 10.015625 43.890625 
L 10.015625 52.203125 
Q 14.9375 54.109375 19.578125 55.046875 
Q 24.21875 56 28.609375 56 
Q 40.484375 56 46.34375 49.84375 
Q 52.203125 43.703125 52.203125 31.203125 
z
" id="DejaVuSans-97"/>
       <path d="M 9.421875 54.6875 
L 18.40625 54.6875 
L 18.40625 0 
L 9.421875 0 
z
M 9.421875 75.984375 
L 18.40625 75.984375 
L 18.40625 64.59375 
L 9.421875 64.59375 
z
" id="DejaVuSans-105"/>
       <path d="M 30.609375 48.390625 
Q 23.390625 48.390625 19.1875 42.75 
Q 14.984375 37.109375 14.984375 27.296875 
Q 14.984375 17.484375 19.15625 11.84375 
Q 23.34375 6.203125 30.609375 6.203125 
Q 37.796875 6.203125 41.984375 11.859375 
Q 46.1875 17.53125 46.1875 27.296875 
Q 46.1875 37.015625 41.984375 42.703125 
Q 37.796875 48.390625 30.609375 48.390625 
z
M 30.609375 56 
Q 42.328125 56 49.015625 48.375 
Q 55.71875 40.765625 55.71875 27.296875 
Q 55.71875 13.875 49.015625 6.21875 
Q 42.328125 -1.421875 30.609375 -1.421875 
Q 18.84375 -1.421875 12.171875 6.21875 
Q 5.515625 13.875 5.515625 27.296875 
Q 5.515625 40.765625 12.171875 48.375 
Q 18.84375 56 30.609375 56 
z
" id="DejaVuSans-111"/>
       <path d="M 54.890625 33.015625 
L 54.890625 0 
L 45.90625 0 
L 45.90625 32.71875 
Q 45.90625 40.484375 42.875 44.328125 
Q 39.84375 48.1875 33.796875 48.1875 
Q 26.515625 48.1875 22.3125 43.546875 
Q 18.109375 38.921875 18.109375 30.90625 
L 18.109375 0 
L 9.078125 0 
L 9.078125 54.6875 
L 18.109375 54.6875 
L 18.109375 46.1875 
Q 21.34375 51.125 25.703125 53.5625 
Q 30.078125 56 35.796875 56 
Q 45.21875 56 50.046875 50.171875 
Q 54.890625 44.34375 54.890625 33.015625 
z
" id="DejaVuSans-110"/>
      </defs>
      <use xlink:href="#DejaVuSans-73"/>
      <use x="29.492188" xlink:href="#DejaVuSans-116"/>
      <use x="68.701172" xlink:href="#DejaVuSans-101"/>
      <use x="130.224609" xlink:href="#DejaVuSans-114"/>
      <use x="171.337891" xlink:href="#DejaVuSans-97"/>
      <use x="232.617188" xlink:href="#DejaVuSans-116"/>
      <use x="271.826172" xlink:href="#DejaVuSans-105"/>
      <use x="299.609375" xlink:href="#DejaVuSans-111"/>
      <use x="360.791016" xlink:href="#DejaVuSans-110"/>
     </g>
    </g>
   </g>
   <g id="matplotlib.axis_2">
    <g id="ytick_1">
     <g id="line2d_8">
      <defs>
       <path d="M 0 0 
L -3.5 0 
" id="m83efa68e60" style="stroke:#000000;stroke-width:0.8;"/>
      </defs>
      <g>
       <use style="stroke:#000000;stroke-width:0.8;" x="50.14375" xlink:href="#m83efa68e60" y="126.096151"/>
      </g>
     </g>
     <g id="text_9">
      <!-- 0.92 -->
      <g transform="translate(20.878125 129.89537)scale(0.1 -0.1)">
       <defs>
        <path d="M 10.6875 12.40625 
L 21 12.40625 
L 21 0 
L 10.6875 0 
z
" id="DejaVuSans-46"/>
        <path d="M 10.984375 1.515625 
L 10.984375 10.5 
Q 14.703125 8.734375 18.5 7.8125 
Q 22.3125 6.890625 25.984375 6.890625 
Q 35.75 6.890625 40.890625 13.453125 
Q 46.046875 20.015625 46.78125 33.40625 
Q 43.953125 29.203125 39.59375 26.953125 
Q 35.25 24.703125 29.984375 24.703125 
Q 19.046875 24.703125 12.671875 31.3125 
Q 6.296875 37.9375 6.296875 49.421875 
Q 6.296875 60.640625 12.9375 67.421875 
Q 19.578125 74.21875 30.609375 74.21875 
Q 43.265625 74.21875 49.921875 64.515625 
Q 56.59375 54.828125 56.59375 36.375 
Q 56.59375 19.140625 48.40625 8.859375 
Q 40.234375 -1.421875 26.421875 -1.421875 
Q 22.703125 -1.421875 18.890625 -0.6875 
Q 15.09375 0.046875 10.984375 1.515625 
z
M 30.609375 32.421875 
Q 37.25 32.421875 41.125 36.953125 
Q 45.015625 41.5 45.015625 49.421875 
Q 45.015625 57.28125 41.125 61.84375 
Q 37.25 66.40625 30.609375 66.40625 
Q 23.96875 66.40625 20.09375 61.84375 
Q 16.21875 57.28125 16.21875 49.421875 
Q 16.21875 41.5 20.09375 36.953125 
Q 23.96875 32.421875 30.609375 32.421875 
z
" id="DejaVuSans-57"/>
       </defs>
       <use xlink:href="#DejaVuSans-48"/>
       <use x="63.623047" xlink:href="#DejaVuSans-46"/>
       <use x="95.410156" xlink:href="#DejaVuSans-57"/>
       <use x="159.033203" xlink:href="#DejaVuSans-50"/>
      </g>
     </g>
    </g>
    <g id="ytick_2">
     <g id="line2d_9">
      <g>
       <use style="stroke:#000000;stroke-width:0.8;" x="50.14375" xlink:href="#m83efa68e60" y="101.018205"/>
      </g>
     </g>
     <g id="text_10">
      <!-- 0.94 -->
      <g transform="translate(20.878125 104.817424)scale(0.1 -0.1)">
       <defs>
        <path d="M 37.796875 64.3125 
L 12.890625 25.390625 
L 37.796875 25.390625 
z
M 35.203125 72.90625 
L 47.609375 72.90625 
L 47.609375 25.390625 
L 58.015625 25.390625 
L 58.015625 17.1875 
L 47.609375 17.1875 
L 47.609375 0 
L 37.796875 0 
L 37.796875 17.1875 
L 4.890625 17.1875 
L 4.890625 26.703125 
z
" id="DejaVuSans-52"/>
       </defs>
       <use xlink:href="#DejaVuSans-48"/>
       <use x="63.623047" xlink:href="#DejaVuSans-46"/>
       <use x="95.410156" xlink:href="#DejaVuSans-57"/>
       <use x="159.033203" xlink:href="#DejaVuSans-52"/>
      </g>
     </g>
    </g>
    <g id="ytick_3">
     <g id="line2d_10">
      <g>
       <use style="stroke:#000000;stroke-width:0.8;" x="50.14375" xlink:href="#m83efa68e60" y="75.940258"/>
      </g>
     </g>
     <g id="text_11">
      <!-- 0.96 -->
      <g transform="translate(20.878125 79.739477)scale(0.1 -0.1)">
       <defs>
        <path d="M 33.015625 40.375 
Q 26.375 40.375 22.484375 35.828125 
Q 18.609375 31.296875 18.609375 23.390625 
Q 18.609375 15.53125 22.484375 10.953125 
Q 26.375 6.390625 33.015625 6.390625 
Q 39.65625 6.390625 43.53125 10.953125 
Q 47.40625 15.53125 47.40625 23.390625 
Q 47.40625 31.296875 43.53125 35.828125 
Q 39.65625 40.375 33.015625 40.375 
z
M 52.59375 71.296875 
L 52.59375 62.3125 
Q 48.875 64.0625 45.09375 64.984375 
Q 41.3125 65.921875 37.59375 65.921875 
Q 27.828125 65.921875 22.671875 59.328125 
Q 17.53125 52.734375 16.796875 39.40625 
Q 19.671875 43.65625 24.015625 45.921875 
Q 28.375 48.1875 33.59375 48.1875 
Q 44.578125 48.1875 50.953125 41.515625 
Q 57.328125 34.859375 57.328125 23.390625 
Q 57.328125 12.15625 50.6875 5.359375 
Q 44.046875 -1.421875 33.015625 -1.421875 
Q 20.359375 -1.421875 13.671875 8.265625 
Q 6.984375 17.96875 6.984375 36.375 
Q 6.984375 53.65625 15.1875 63.9375 
Q 23.390625 74.21875 37.203125 74.21875 
Q 40.921875 74.21875 44.703125 73.484375 
Q 48.484375 72.75 52.59375 71.296875 
z
" id="DejaVuSans-54"/>
       </defs>
       <use xlink:href="#DejaVuSans-48"/>
       <use x="63.623047" xlink:href="#DejaVuSans-46"/>
       <use x="95.410156" xlink:href="#DejaVuSans-57"/>
       <use x="159.033203" xlink:href="#DejaVuSans-54"/>
      </g>
     </g>
    </g>
    <g id="ytick_4">
     <g id="line2d_11">
      <g>
       <use style="stroke:#000000;stroke-width:0.8;" x="50.14375" xlink:href="#m83efa68e60" y="50.862312"/>
      </g>
     </g>
     <g id="text_12">
      <!-- 0.98 -->
      <g transform="translate(20.878125 54.661531)scale(0.1 -0.1)">
       <defs>
        <path d="M 31.78125 34.625 
Q 24.75 34.625 20.71875 30.859375 
Q 16.703125 27.09375 16.703125 20.515625 
Q 16.703125 13.921875 20.71875 10.15625 
Q 24.75 6.390625 31.78125 6.390625 
Q 38.8125 6.390625 42.859375 10.171875 
Q 46.921875 13.96875 46.921875 20.515625 
Q 46.921875 27.09375 42.890625 30.859375 
Q 38.875 34.625 31.78125 34.625 
z
M 21.921875 38.8125 
Q 15.578125 40.375 12.03125 44.71875 
Q 8.5 49.078125 8.5 55.328125 
Q 8.5 64.0625 14.71875 69.140625 
Q 20.953125 74.21875 31.78125 74.21875 
Q 42.671875 74.21875 48.875 69.140625 
Q 55.078125 64.0625 55.078125 55.328125 
Q 55.078125 49.078125 51.53125 44.71875 
Q 48 40.375 41.703125 38.8125 
Q 48.828125 37.15625 52.796875 32.3125 
Q 56.78125 27.484375 56.78125 20.515625 
Q 56.78125 9.90625 50.3125 4.234375 
Q 43.84375 -1.421875 31.78125 -1.421875 
Q 19.734375 -1.421875 13.25 4.234375 
Q 6.78125 9.90625 6.78125 20.515625 
Q 6.78125 27.484375 10.78125 32.3125 
Q 14.796875 37.15625 21.921875 38.8125 
z
M 18.3125 54.390625 
Q 18.3125 48.734375 21.84375 45.5625 
Q 25.390625 42.390625 31.78125 42.390625 
Q 38.140625 42.390625 41.71875 45.5625 
Q 45.3125 48.734375 45.3125 54.390625 
Q 45.3125 60.0625 41.71875 63.234375 
Q 38.140625 66.40625 31.78125 66.40625 
Q 25.390625 66.40625 21.84375 63.234375 
Q 18.3125 60.0625 18.3125 54.390625 
z
" id="DejaVuSans-56"/>
       </defs>
       <use xlink:href="#DejaVuSans-48"/>
       <use x="63.623047" xlink:href="#DejaVuSans-46"/>
       <use x="95.410156" xlink:href="#DejaVuSans-57"/>
       <use x="159.033203" xlink:href="#DejaVuSans-56"/>
      </g>
     </g>
    </g>
    <g id="ytick_5">
     <g id="line2d_12">
      <g>
       <use style="stroke:#000000;stroke-width:0.8;" x="50.14375" xlink:href="#m83efa68e60" y="25.784366"/>
      </g>
     </g>
     <g id="text_13">
      <!-- 1.00 -->
      <g transform="translate(20.878125 29.583585)scale(0.1 -0.1)">
       <use xlink:href="#DejaVuSans-49"/>
       <use x="63.623047" xlink:href="#DejaVuSans-46"/>
       <use x="95.410156" xlink:href="#DejaVuSans-48"/>
       <use x="159.033203" xlink:href="#DejaVuSans-48"/>
      </g>
     </g>
    </g>
    <g id="text_14">
     <!-- acc -->
     <g transform="translate(14.798438 88.237)rotate(-90)scale(0.1 -0.1)">
      <defs>
       <path d="M 48.78125 52.59375 
L 48.78125 44.1875 
Q 44.96875 46.296875 41.140625 47.34375 
Q 37.3125 48.390625 33.40625 48.390625 
Q 24.65625 48.390625 19.8125 42.84375 
Q 14.984375 37.3125 14.984375 27.296875 
Q 14.984375 17.28125 19.8125 11.734375 
Q 24.65625 6.203125 33.40625 6.203125 
Q 37.3125 6.203125 41.140625 7.25 
Q 44.96875 8.296875 48.78125 10.40625 
L 48.78125 2.09375 
Q 45.015625 0.34375 40.984375 -0.53125 
Q 36.96875 -1.421875 32.421875 -1.421875 
Q 20.0625 -1.421875 12.78125 6.34375 
Q 5.515625 14.109375 5.515625 27.296875 
Q 5.515625 40.671875 12.859375 48.328125 
Q 20.21875 56 33.015625 56 
Q 37.15625 56 41.109375 55.140625 
Q 45.0625 54.296875 48.78125 52.59375 
z
" id="DejaVuSans-99"/>
      </defs>
      <use xlink:href="#DejaVuSans-97"/>
      <use x="61.279297" xlink:href="#DejaVuSans-99"/>
      <use x="116.259766" xlink:href="#DejaVuSans-99"/>
     </g>
    </g>
   </g>
   <g id="line2d_13">
    <path clip-path="url(#pf2dba26b35)" d="M 58.194825 126.287235 
L 63.747291 43.316057 
L 69.299757 27.316721 
L 74.852222 27.046319 
L 80.404688 27.226587 
L 85.957154 27.406855 
L 91.509619 28.082861 
L 97.062085 29.885619 
L 102.614551 32.319316 
L 108.167017 33.175591 
L 113.719482 32.544652 
L 119.271948 30.967229 
L 124.824414 29.25468 
L 130.376879 27.722325 
L 135.929345 27.632191 
L 141.481811 27.542057 
L 147.034276 27.091386 
L 152.586742 26.775842 
L 158.139208 26.460372 
L 163.691673 26.325171 
L 169.244139 26.415305 
L 174.796605 26.370238 
L 180.349071 26.280104 
L 185.901536 26.235037 
L 191.454002 26.18997 
L 197.006468 26.18997 
L 202.558933 26.18997 
L 208.111399 26.144902 
L 213.663865 26.144902 
L 219.21633 26.18997 
" style="fill:none;stroke:#ebac23;stroke-linecap:square;"/>
   </g>
   <g id="line2d_14">
    <path clip-path="url(#pf2dba26b35)" d="M 58.194825 133.4745 
L 63.747291 108.417878 
L 69.299757 101.08749 
L 74.852222 76.830566 
L 80.404688 69.766768 
L 85.957154 66.967826 
L 91.509619 61.236834 
L 97.062085 56.705313 
L 102.614551 55.505767 
L 108.167017 53.240006 
L 113.719482 51.773944 
L 119.271948 51.507353 
L 124.824414 51.107579 
L 130.376879 50.174623 
L 135.929345 49.908032 
L 141.481811 49.908032 
L 147.034276 49.241592 
L 152.586742 49.374925 
L 158.139208 48.841818 
L 163.691673 48.841818 
L 169.244139 49.641441 
L 174.796605 48.841818 
L 180.349071 50.840988 
L 185.901536 51.907202 
L 191.454002 51.907202 
L 197.006468 51.107579 
L 202.558933 51.107579 
L 208.111399 51.773944 
L 213.663865 51.773944 
L 219.21633 51.240837 
" style="fill:none;stroke:#b80058;stroke-linecap:square;"/>
   </g>
   <g id="line2d_15">
    <path clip-path="url(#pf2dba26b35)" d="M 58.194825 129.626534 
L 63.747291 104.908625 
L 69.299757 98.59475 
L 74.852222 75.757551 
L 80.404688 69.712434 
L 85.957154 66.488307 
L 91.509619 60.711873 
L 97.062085 57.622126 
L 102.614551 55.472732 
L 108.167017 53.323339 
L 113.719482 51.173946 
L 119.271948 50.36797 
L 124.824414 49.696299 
L 130.376879 51.308325 
L 135.929345 51.308325 
L 141.481811 51.44263 
L 147.034276 50.36797 
L 152.586742 50.233591 
L 158.139208 49.158932 
L 163.691673 48.084198 
L 169.244139 47.68121 
L 174.796605 48.755944 
L 180.349071 51.577009 
L 185.901536 52.517364 
L 191.454002 52.517364 
L 197.006468 52.114301 
L 202.558933 52.517364 
L 208.111399 52.24868 
L 213.663865 51.845692 
L 219.21633 51.577009 
" style="fill:none;stroke:#008cf9;stroke-linecap:square;"/>
   </g>
   <g id="line2d_16">
    <path clip-path="url(#pf2dba26b35)" d="M 58.194825 85.094582 
L 63.747291 54.628267 
L 69.299757 46.786296 
L 74.852222 45.794821 
L 80.404688 43.27099 
L 85.957154 40.296413 
L 91.509619 36.645905 
L 97.062085 35.158617 
L 102.614551 32.905188 
L 108.167017 29.525083 
L 113.719482 26.325171 
L 119.271948 26.235037 
L 124.824414 26.18997 
L 130.376879 25.8745 
L 135.929345 25.8745 
L 141.481811 25.919567 
L 147.034276 25.964634 
L 152.586742 26.009701 
L 158.139208 26.144902 
L 163.691673 26.18997 
L 169.244139 26.144902 
L 174.796605 26.18997 
" style="fill:none;stroke:#ebac23;stroke-dasharray:1,1.65;stroke-dashoffset:0;"/>
   </g>
   <g id="line2d_17">
    <path clip-path="url(#pf2dba26b35)" d="M 58.194825 130.009268 
L 63.747291 115.615008 
L 69.299757 106.685299 
L 74.852222 94.690058 
L 80.404688 68.567222 
L 85.957154 55.772357 
L 91.509619 52.307051 
L 97.062085 51.907202 
L 102.614551 50.574397 
L 108.167017 49.641441 
L 113.719482 49.508183 
L 119.271948 50.04129 
L 124.824414 50.70773 
L 130.376879 52.040534 
L 135.929345 52.573641 
L 141.481811 54.706069 
L 147.034276 56.838571 
L 152.586742 57.638269 
L 158.139208 59.637439 
L 163.691673 60.170545 
L 169.244139 61.370092 
L 174.796605 62.702897 
" style="fill:none;stroke:#b80058;stroke-dasharray:1,1.65;stroke-dashoffset:0;"/>
   </g>
   <g id="line2d_18">
    <path clip-path="url(#pf2dba26b35)" d="M 58.194825 125.327748 
L 63.747291 112.431464 
L 69.299757 102.624853 
L 74.852222 88.922518 
L 80.404688 65.547952 
L 85.957154 55.741416 
L 91.509619 52.114301 
L 97.062085 51.577009 
L 102.614551 50.502275 
L 108.167017 49.696299 
L 113.719482 50.233591 
L 119.271948 51.039642 
L 124.824414 51.039642 
L 130.376879 52.114301 
L 135.929345 52.114301 
L 141.481811 54.666757 
L 147.034276 55.607112 
L 152.586742 56.681771 
L 158.139208 58.159493 
L 163.691673 58.428176 
L 169.244139 59.63714 
L 174.796605 60.711873 
" style="fill:none;stroke:#008cf9;stroke-dasharray:1,1.65;stroke-dashoffset:0;"/>
   </g>
   <g id="patch_3">
    <path d="M 50.14375 138.8545 
L 50.14375 20.4945 
" style="fill:none;stroke:#000000;stroke-linecap:square;stroke-linejoin:miter;stroke-width:0.8;"/>
   </g>
   <g id="patch_4">
    <path d="M 227.267406 138.8545 
L 227.267406 20.4945 
" style="fill:none;stroke:#000000;stroke-linecap:square;stroke-linejoin:miter;stroke-width:0.8;"/>
   </g>
   <g id="patch_5">
    <path d="M 50.14375 138.8545 
L 227.267406 138.8545 
" style="fill:none;stroke:#000000;stroke-linecap:square;stroke-linejoin:miter;stroke-width:0.8;"/>
   </g>
   <g id="patch_6">
    <path d="M 50.14375 20.4945 
L 227.267406 20.4945 
" style="fill:none;stroke:#000000;stroke-linecap:square;stroke-linejoin:miter;stroke-width:0.8;"/>
   </g>
   <g id="text_15">
    <!-- BGNN-based-on(AGNN/GAT)-acc -->
    <g transform="translate(61.595078 14.4945)scale(0.096 -0.096)">
     <defs>
      <path d="M 19.671875 34.8125 
L 19.671875 8.109375 
L 35.5 8.109375 
Q 43.453125 8.109375 47.28125 11.40625 
Q 51.125 14.703125 51.125 21.484375 
Q 51.125 28.328125 47.28125 31.5625 
Q 43.453125 34.8125 35.5 34.8125 
z
M 19.671875 64.796875 
L 19.671875 42.828125 
L 34.28125 42.828125 
Q 41.5 42.828125 45.03125 45.53125 
Q 48.578125 48.25 48.578125 53.8125 
Q 48.578125 59.328125 45.03125 62.0625 
Q 41.5 64.796875 34.28125 64.796875 
z
M 9.8125 72.90625 
L 35.015625 72.90625 
Q 46.296875 72.90625 52.390625 68.21875 
Q 58.5 63.53125 58.5 54.890625 
Q 58.5 48.1875 55.375 44.234375 
Q 52.25 40.28125 46.1875 39.3125 
Q 53.46875 37.75 57.5 32.78125 
Q 61.53125 27.828125 61.53125 20.40625 
Q 61.53125 10.640625 54.890625 5.3125 
Q 48.25 0 35.984375 0 
L 9.8125 0 
z
" id="DejaVuSans-66"/>
      <path d="M 59.515625 10.40625 
L 59.515625 29.984375 
L 43.40625 29.984375 
L 43.40625 38.09375 
L 69.28125 38.09375 
L 69.28125 6.78125 
Q 63.578125 2.734375 56.6875 0.65625 
Q 49.8125 -1.421875 42 -1.421875 
Q 24.90625 -1.421875 15.25 8.5625 
Q 5.609375 18.5625 5.609375 36.375 
Q 5.609375 54.25 15.25 64.234375 
Q 24.90625 74.21875 42 74.21875 
Q 49.125 74.21875 55.546875 72.453125 
Q 61.96875 70.703125 67.390625 67.28125 
L 67.390625 56.78125 
Q 61.921875 61.421875 55.765625 63.765625 
Q 49.609375 66.109375 42.828125 66.109375 
Q 29.4375 66.109375 22.71875 58.640625 
Q 16.015625 51.171875 16.015625 36.375 
Q 16.015625 21.625 22.71875 14.15625 
Q 29.4375 6.6875 42.828125 6.6875 
Q 48.046875 6.6875 52.140625 7.59375 
Q 56.25 8.5 59.515625 10.40625 
z
" id="DejaVuSans-71"/>
      <path d="M 9.8125 72.90625 
L 23.09375 72.90625 
L 55.421875 11.921875 
L 55.421875 72.90625 
L 64.984375 72.90625 
L 64.984375 0 
L 51.703125 0 
L 19.390625 60.984375 
L 19.390625 0 
L 9.8125 0 
z
" id="DejaVuSans-78"/>
      <path d="M 4.890625 31.390625 
L 31.203125 31.390625 
L 31.203125 23.390625 
L 4.890625 23.390625 
z
" id="DejaVuSans-45"/>
      <path d="M 48.6875 27.296875 
Q 48.6875 37.203125 44.609375 42.84375 
Q 40.53125 48.484375 33.40625 48.484375 
Q 26.265625 48.484375 22.1875 42.84375 
Q 18.109375 37.203125 18.109375 27.296875 
Q 18.109375 17.390625 22.1875 11.75 
Q 26.265625 6.109375 33.40625 6.109375 
Q 40.53125 6.109375 44.609375 11.75 
Q 48.6875 17.390625 48.6875 27.296875 
z
M 18.109375 46.390625 
Q 20.953125 51.265625 25.265625 53.625 
Q 29.59375 56 35.59375 56 
Q 45.5625 56 51.78125 48.09375 
Q 58.015625 40.1875 58.015625 27.296875 
Q 58.015625 14.40625 51.78125 6.484375 
Q 45.5625 -1.421875 35.59375 -1.421875 
Q 29.59375 -1.421875 25.265625 0.953125 
Q 20.953125 3.328125 18.109375 8.203125 
L 18.109375 0 
L 9.078125 0 
L 9.078125 75.984375 
L 18.109375 75.984375 
z
" id="DejaVuSans-98"/>
      <path d="M 44.28125 53.078125 
L 44.28125 44.578125 
Q 40.484375 46.53125 36.375 47.5 
Q 32.28125 48.484375 27.875 48.484375 
Q 21.1875 48.484375 17.84375 46.4375 
Q 14.5 44.390625 14.5 40.28125 
Q 14.5 37.15625 16.890625 35.375 
Q 19.28125 33.59375 26.515625 31.984375 
L 29.59375 31.296875 
Q 39.15625 29.25 43.1875 25.515625 
Q 47.21875 21.78125 47.21875 15.09375 
Q 47.21875 7.46875 41.1875 3.015625 
Q 35.15625 -1.421875 24.609375 -1.421875 
Q 20.21875 -1.421875 15.453125 -0.5625 
Q 10.6875 0.296875 5.421875 2 
L 5.421875 11.28125 
Q 10.40625 8.6875 15.234375 7.390625 
Q 20.0625 6.109375 24.8125 6.109375 
Q 31.15625 6.109375 34.5625 8.28125 
Q 37.984375 10.453125 37.984375 14.40625 
Q 37.984375 18.0625 35.515625 20.015625 
Q 33.0625 21.96875 24.703125 23.78125 
L 21.578125 24.515625 
Q 13.234375 26.265625 9.515625 29.90625 
Q 5.8125 33.546875 5.8125 39.890625 
Q 5.8125 47.609375 11.28125 51.796875 
Q 16.75 56 26.8125 56 
Q 31.78125 56 36.171875 55.265625 
Q 40.578125 54.546875 44.28125 53.078125 
z
" id="DejaVuSans-115"/>
      <path d="M 45.40625 46.390625 
L 45.40625 75.984375 
L 54.390625 75.984375 
L 54.390625 0 
L 45.40625 0 
L 45.40625 8.203125 
Q 42.578125 3.328125 38.25 0.953125 
Q 33.9375 -1.421875 27.875 -1.421875 
Q 17.96875 -1.421875 11.734375 6.484375 
Q 5.515625 14.40625 5.515625 27.296875 
Q 5.515625 40.1875 11.734375 48.09375 
Q 17.96875 56 27.875 56 
Q 33.9375 56 38.25 53.625 
Q 42.578125 51.265625 45.40625 46.390625 
z
M 14.796875 27.296875 
Q 14.796875 17.390625 18.875 11.75 
Q 22.953125 6.109375 30.078125 6.109375 
Q 37.203125 6.109375 41.296875 11.75 
Q 45.40625 17.390625 45.40625 27.296875 
Q 45.40625 37.203125 41.296875 42.84375 
Q 37.203125 48.484375 30.078125 48.484375 
Q 22.953125 48.484375 18.875 42.84375 
Q 14.796875 37.203125 14.796875 27.296875 
z
" id="DejaVuSans-100"/>
      <path d="M 31 75.875 
Q 24.46875 64.65625 21.28125 53.65625 
Q 18.109375 42.671875 18.109375 31.390625 
Q 18.109375 20.125 21.3125 9.0625 
Q 24.515625 -2 31 -13.1875 
L 23.1875 -13.1875 
Q 15.875 -1.703125 12.234375 9.375 
Q 8.59375 20.453125 8.59375 31.390625 
Q 8.59375 42.28125 12.203125 53.3125 
Q 15.828125 64.359375 23.1875 75.875 
z
" id="DejaVuSans-40"/>
      <path d="M 34.1875 63.1875 
L 20.796875 26.90625 
L 47.609375 26.90625 
z
M 28.609375 72.90625 
L 39.796875 72.90625 
L 67.578125 0 
L 57.328125 0 
L 50.6875 18.703125 
L 17.828125 18.703125 
L 11.1875 0 
L 0.78125 0 
z
" id="DejaVuSans-65"/>
      <path d="M 25.390625 72.90625 
L 33.6875 72.90625 
L 8.296875 -9.28125 
L 0 -9.28125 
z
" id="DejaVuSans-47"/>
      <path d="M -0.296875 72.90625 
L 61.375 72.90625 
L 61.375 64.59375 
L 35.5 64.59375 
L 35.5 0 
L 25.59375 0 
L 25.59375 64.59375 
L -0.296875 64.59375 
z
" id="DejaVuSans-84"/>
      <path d="M 8.015625 75.875 
L 15.828125 75.875 
Q 23.140625 64.359375 26.78125 53.3125 
Q 30.421875 42.28125 30.421875 31.390625 
Q 30.421875 20.453125 26.78125 9.375 
Q 23.140625 -1.703125 15.828125 -13.1875 
L 8.015625 -13.1875 
Q 14.5 -2 17.703125 9.0625 
Q 20.90625 20.125 20.90625 31.390625 
Q 20.90625 42.671875 17.703125 53.65625 
Q 14.5 64.65625 8.015625 75.875 
z
" id="DejaVuSans-41"/>
     </defs>
     <use xlink:href="#DejaVuSans-66"/>
     <use x="66.853516" xlink:href="#DejaVuSans-71"/>
     <use x="144.34375" xlink:href="#DejaVuSans-78"/>
     <use x="219.148438" xlink:href="#DejaVuSans-78"/>
     <use x="293.953125" xlink:href="#DejaVuSans-45"/>
     <use x="330.037109" xlink:href="#DejaVuSans-98"/>
     <use x="393.513672" xlink:href="#DejaVuSans-97"/>
     <use x="454.792969" xlink:href="#DejaVuSans-115"/>
     <use x="506.892578" xlink:href="#DejaVuSans-101"/>
     <use x="568.416016" xlink:href="#DejaVuSans-100"/>
     <use x="631.892578" xlink:href="#DejaVuSans-45"/>
     <use x="669.851562" xlink:href="#DejaVuSans-111"/>
     <use x="731.033203" xlink:href="#DejaVuSans-110"/>
     <use x="794.412109" xlink:href="#DejaVuSans-40"/>
     <use x="833.425781" xlink:href="#DejaVuSans-65"/>
     <use x="900.083984" xlink:href="#DejaVuSans-71"/>
     <use x="977.574219" xlink:href="#DejaVuSans-78"/>
     <use x="1052.378906" xlink:href="#DejaVuSans-78"/>
     <use x="1127.183594" xlink:href="#DejaVuSans-47"/>
     <use x="1160.875" xlink:href="#DejaVuSans-71"/>
     <use x="1238.365234" xlink:href="#DejaVuSans-65"/>
     <use x="1299.023438" xlink:href="#DejaVuSans-84"/>
     <use x="1360.107422" xlink:href="#DejaVuSans-41"/>
     <use x="1399.121094" xlink:href="#DejaVuSans-45"/>
     <use x="1435.205078" xlink:href="#DejaVuSans-97"/>
     <use x="1496.484375" xlink:href="#DejaVuSans-99"/>
     <use x="1551.464844" xlink:href="#DejaVuSans-99"/>
    </g>
   </g>
   <g id="legend_1">
    <g id="patch_7">
     <path d="M 150.728656 134.8545 
L 221.667406 134.8545 
Q 223.267406 134.8545 223.267406 133.2545 
L 223.267406 63.5995 
Q 223.267406 61.9995 221.667406 61.9995 
L 150.728656 61.9995 
Q 149.128656 61.9995 149.128656 63.5995 
L 149.128656 133.2545 
Q 149.128656 134.8545 150.728656 134.8545 
z
" style="fill:#ffffff;opacity:0.8;stroke:#cccccc;stroke-linejoin:miter;"/>
    </g>
    <g id="line2d_19">
     <path d="M 152.328656 68.47825 
L 168.328656 68.47825 
" style="fill:none;stroke:#ebac23;stroke-linecap:square;"/>
    </g>
    <g id="line2d_20"/>
    <g id="text_16">
     <!-- AGNN-train -->
     <g transform="translate(174.728656 71.27825)scale(0.08 -0.08)">
      <use xlink:href="#DejaVuSans-65"/>
      <use x="66.658203" xlink:href="#DejaVuSans-71"/>
      <use x="144.148438" xlink:href="#DejaVuSans-78"/>
      <use x="218.953125" xlink:href="#DejaVuSans-78"/>
      <use x="293.757812" xlink:href="#DejaVuSans-45"/>
      <use x="329.841797" xlink:href="#DejaVuSans-116"/>
      <use x="369.050781" xlink:href="#DejaVuSans-114"/>
      <use x="410.164062" xlink:href="#DejaVuSans-97"/>
      <use x="471.443359" xlink:href="#DejaVuSans-105"/>
      <use x="499.226562" xlink:href="#DejaVuSans-110"/>
     </g>
    </g>
    <g id="line2d_21">
     <path d="M 152.328656 80.22075 
L 168.328656 80.22075 
" style="fill:none;stroke:#b80058;stroke-linecap:square;"/>
    </g>
    <g id="line2d_22"/>
    <g id="text_17">
     <!-- AGNN-valid -->
     <g transform="translate(174.728656 83.02075)scale(0.08 -0.08)">
      <defs>
       <path d="M 2.984375 54.6875 
L 12.5 54.6875 
L 29.59375 8.796875 
L 46.6875 54.6875 
L 56.203125 54.6875 
L 35.6875 0 
L 23.484375 0 
z
" id="DejaVuSans-118"/>
       <path d="M 9.421875 75.984375 
L 18.40625 75.984375 
L 18.40625 0 
L 9.421875 0 
z
" id="DejaVuSans-108"/>
      </defs>
      <use xlink:href="#DejaVuSans-65"/>
      <use x="66.658203" xlink:href="#DejaVuSans-71"/>
      <use x="144.148438" xlink:href="#DejaVuSans-78"/>
      <use x="218.953125" xlink:href="#DejaVuSans-78"/>
      <use x="293.757812" xlink:href="#DejaVuSans-45"/>
      <use x="327.216797" xlink:href="#DejaVuSans-118"/>
      <use x="386.396484" xlink:href="#DejaVuSans-97"/>
      <use x="447.675781" xlink:href="#DejaVuSans-108"/>
      <use x="475.458984" xlink:href="#DejaVuSans-105"/>
      <use x="503.242188" xlink:href="#DejaVuSans-100"/>
     </g>
    </g>
    <g id="line2d_23">
     <path d="M 152.328656 91.96325 
L 168.328656 91.96325 
" style="fill:none;stroke:#008cf9;stroke-linecap:square;"/>
    </g>
    <g id="line2d_24"/>
    <g id="text_18">
     <!-- AGNN-test -->
     <g transform="translate(174.728656 94.76325)scale(0.08 -0.08)">
      <use xlink:href="#DejaVuSans-65"/>
      <use x="66.658203" xlink:href="#DejaVuSans-71"/>
      <use x="144.148438" xlink:href="#DejaVuSans-78"/>
      <use x="218.953125" xlink:href="#DejaVuSans-78"/>
      <use x="293.757812" xlink:href="#DejaVuSans-45"/>
      <use x="329.841797" xlink:href="#DejaVuSans-116"/>
      <use x="369.050781" xlink:href="#DejaVuSans-101"/>
      <use x="430.574219" xlink:href="#DejaVuSans-115"/>
      <use x="482.673828" xlink:href="#DejaVuSans-116"/>
     </g>
    </g>
    <g id="line2d_25">
     <path d="M 152.328656 103.70575 
L 168.328656 103.70575 
" style="fill:none;stroke:#ebac23;stroke-dasharray:1,1.65;stroke-dashoffset:0;"/>
    </g>
    <g id="line2d_26"/>
    <g id="text_19">
     <!-- GAT-train -->
     <g transform="translate(174.728656 106.50575)scale(0.08 -0.08)">
      <use xlink:href="#DejaVuSans-71"/>
      <use x="77.490234" xlink:href="#DejaVuSans-65"/>
      <use x="138.148438" xlink:href="#DejaVuSans-84"/>
      <use x="190.107422" xlink:href="#DejaVuSans-45"/>
      <use x="226.191406" xlink:href="#DejaVuSans-116"/>
      <use x="265.400391" xlink:href="#DejaVuSans-114"/>
      <use x="306.513672" xlink:href="#DejaVuSans-97"/>
      <use x="367.792969" xlink:href="#DejaVuSans-105"/>
      <use x="395.576172" xlink:href="#DejaVuSans-110"/>
     </g>
    </g>
    <g id="line2d_27">
     <path d="M 152.328656 115.44825 
L 168.328656 115.44825 
" style="fill:none;stroke:#b80058;stroke-dasharray:1,1.65;stroke-dashoffset:0;"/>
    </g>
    <g id="line2d_28"/>
    <g id="text_20">
     <!-- GAT-valid -->
     <g transform="translate(174.728656 118.24825)scale(0.08 -0.08)">
      <use xlink:href="#DejaVuSans-71"/>
      <use x="77.490234" xlink:href="#DejaVuSans-65"/>
      <use x="138.148438" xlink:href="#DejaVuSans-84"/>
      <use x="190.107422" xlink:href="#DejaVuSans-45"/>
      <use x="223.566406" xlink:href="#DejaVuSans-118"/>
      <use x="282.746094" xlink:href="#DejaVuSans-97"/>
      <use x="344.025391" xlink:href="#DejaVuSans-108"/>
      <use x="371.808594" xlink:href="#DejaVuSans-105"/>
      <use x="399.591797" xlink:href="#DejaVuSans-100"/>
     </g>
    </g>
    <g id="line2d_29">
     <path d="M 152.328656 127.19075 
L 168.328656 127.19075 
" style="fill:none;stroke:#008cf9;stroke-dasharray:1,1.65;stroke-dashoffset:0;"/>
    </g>
    <g id="line2d_30"/>
    <g id="text_21">
     <!-- GAT-test -->
     <g transform="translate(174.728656 129.99075)scale(0.08 -0.08)">
      <use xlink:href="#DejaVuSans-71"/>
      <use x="77.490234" xlink:href="#DejaVuSans-65"/>
      <use x="138.148438" xlink:href="#DejaVuSans-84"/>
      <use x="190.107422" xlink:href="#DejaVuSans-45"/>
      <use x="226.191406" xlink:href="#DejaVuSans-116"/>
      <use x="265.400391" xlink:href="#DejaVuSans-101"/>
      <use x="326.923828" xlink:href="#DejaVuSans-115"/>
      <use x="379.023438" xlink:href="#DejaVuSans-116"/>
     </g>
    </g>
   </g>
  </g>
  <g id="axes_2">
   <g id="patch_8">
    <path d="M 270.68875 138.8545 
L 447.812406 138.8545 
L 447.812406 20.4945 
L 270.68875 20.4945 
z
" style="fill:#ffffff;"/>
   </g>
   <g id="matplotlib.axis_3">
    <g id="xtick_8">
     <g id="line2d_31">
      <g>
       <use style="stroke:#000000;stroke-width:0.8;" x="278.739825" xlink:href="#m799a967eae" y="138.8545"/>
      </g>
     </g>
     <g id="text_22">
      <!-- 0 -->
      <g transform="translate(276.194825 151.93325)scale(0.08 -0.08)">
       <use xlink:href="#DejaVuSans-48"/>
      </g>
     </g>
    </g>
    <g id="xtick_9">
     <g id="line2d_32">
      <g>
       <use style="stroke:#000000;stroke-width:0.8;" x="306.502154" xlink:href="#m799a967eae" y="138.8545"/>
      </g>
     </g>
     <g id="text_23">
      <!-- 5 -->
      <g transform="translate(303.957154 151.93325)scale(0.08 -0.08)">
       <use xlink:href="#DejaVuSans-53"/>
      </g>
     </g>
    </g>
    <g id="xtick_10">
     <g id="line2d_33">
      <g>
       <use style="stroke:#000000;stroke-width:0.8;" x="334.264482" xlink:href="#m799a967eae" y="138.8545"/>
      </g>
     </g>
     <g id="text_24">
      <!-- 10 -->
      <g transform="translate(329.174482 151.93325)scale(0.08 -0.08)">
       <use xlink:href="#DejaVuSans-49"/>
       <use x="63.623047" xlink:href="#DejaVuSans-48"/>
      </g>
     </g>
    </g>
    <g id="xtick_11">
     <g id="line2d_34">
      <g>
       <use style="stroke:#000000;stroke-width:0.8;" x="362.026811" xlink:href="#m799a967eae" y="138.8545"/>
      </g>
     </g>
     <g id="text_25">
      <!-- 15 -->
      <g transform="translate(356.936811 151.93325)scale(0.08 -0.08)">
       <use xlink:href="#DejaVuSans-49"/>
       <use x="63.623047" xlink:href="#DejaVuSans-53"/>
      </g>
     </g>
    </g>
    <g id="xtick_12">
     <g id="line2d_35">
      <g>
       <use style="stroke:#000000;stroke-width:0.8;" x="389.789139" xlink:href="#m799a967eae" y="138.8545"/>
      </g>
     </g>
     <g id="text_26">
      <!-- 20 -->
      <g transform="translate(384.699139 151.93325)scale(0.08 -0.08)">
       <use xlink:href="#DejaVuSans-50"/>
       <use x="63.623047" xlink:href="#DejaVuSans-48"/>
      </g>
     </g>
    </g>
    <g id="xtick_13">
     <g id="line2d_36">
      <g>
       <use style="stroke:#000000;stroke-width:0.8;" x="417.551468" xlink:href="#m799a967eae" y="138.8545"/>
      </g>
     </g>
     <g id="text_27">
      <!-- 25 -->
      <g transform="translate(412.461468 151.93325)scale(0.08 -0.08)">
       <use xlink:href="#DejaVuSans-50"/>
       <use x="63.623047" xlink:href="#DejaVuSans-53"/>
      </g>
     </g>
    </g>
    <g id="xtick_14">
     <g id="line2d_37">
      <g>
       <use style="stroke:#000000;stroke-width:0.8;" x="445.313796" xlink:href="#m799a967eae" y="138.8545"/>
      </g>
     </g>
     <g id="text_28">
      <!-- 30 -->
      <g transform="translate(440.223796 151.93325)scale(0.08 -0.08)">
       <use xlink:href="#DejaVuSans-51"/>
       <use x="63.623047" xlink:href="#DejaVuSans-48"/>
      </g>
     </g>
    </g>
    <g id="text_29">
     <!-- Iteration -->
     <g transform="translate(342.283703 163.67575)scale(0.08 -0.08)">
      <use xlink:href="#DejaVuSans-73"/>
      <use x="29.492188" xlink:href="#DejaVuSans-116"/>
      <use x="68.701172" xlink:href="#DejaVuSans-101"/>
      <use x="130.224609" xlink:href="#DejaVuSans-114"/>
      <use x="171.337891" xlink:href="#DejaVuSans-97"/>
      <use x="232.617188" xlink:href="#DejaVuSans-116"/>
      <use x="271.826172" xlink:href="#DejaVuSans-105"/>
      <use x="299.609375" xlink:href="#DejaVuSans-111"/>
      <use x="360.791016" xlink:href="#DejaVuSans-110"/>
     </g>
    </g>
   </g>
   <g id="matplotlib.axis_4">
    <g id="ytick_6">
     <g id="line2d_38">
      <g>
       <use style="stroke:#000000;stroke-width:0.8;" x="270.68875" xlink:href="#m83efa68e60" y="113.243118"/>
      </g>
     </g>
     <g id="text_30">
      <!-- 0.7 -->
      <g transform="translate(250.96625 116.282493)scale(0.08 -0.08)">
       <defs>
        <path d="M 8.203125 72.90625 
L 55.078125 72.90625 
L 55.078125 68.703125 
L 28.609375 0 
L 18.3125 0 
L 43.21875 64.59375 
L 8.203125 64.59375 
z
" id="DejaVuSans-55"/>
       </defs>
       <use xlink:href="#DejaVuSans-48"/>
       <use x="63.623047" xlink:href="#DejaVuSans-46"/>
       <use x="95.410156" xlink:href="#DejaVuSans-55"/>
      </g>
     </g>
    </g>
    <g id="ytick_7">
     <g id="line2d_39">
      <g>
       <use style="stroke:#000000;stroke-width:0.8;" x="270.68875" xlink:href="#m83efa68e60" y="84.120245"/>
      </g>
     </g>
     <g id="text_31">
      <!-- 0.8 -->
      <g transform="translate(250.96625 87.15962)scale(0.08 -0.08)">
       <use xlink:href="#DejaVuSans-48"/>
       <use x="63.623047" xlink:href="#DejaVuSans-46"/>
       <use x="95.410156" xlink:href="#DejaVuSans-56"/>
      </g>
     </g>
    </g>
    <g id="ytick_8">
     <g id="line2d_40">
      <g>
       <use style="stroke:#000000;stroke-width:0.8;" x="270.68875" xlink:href="#m83efa68e60" y="54.997373"/>
      </g>
     </g>
     <g id="text_32">
      <!-- 0.9 -->
      <g transform="translate(250.96625 58.036748)scale(0.08 -0.08)">
       <use xlink:href="#DejaVuSans-48"/>
       <use x="63.623047" xlink:href="#DejaVuSans-46"/>
       <use x="95.410156" xlink:href="#DejaVuSans-57"/>
      </g>
     </g>
    </g>
    <g id="ytick_9">
     <g id="line2d_41">
      <g>
       <use style="stroke:#000000;stroke-width:0.8;" x="270.68875" xlink:href="#m83efa68e60" y="25.8745"/>
      </g>
     </g>
     <g id="text_33">
      <!-- 1.0 -->
      <g transform="translate(250.96625 28.913875)scale(0.08 -0.08)">
       <use xlink:href="#DejaVuSans-49"/>
       <use x="63.623047" xlink:href="#DejaVuSans-46"/>
       <use x="95.410156" xlink:href="#DejaVuSans-48"/>
      </g>
     </g>
    </g>
    <g id="text_34">
     <!-- pre -->
     <g transform="translate(245.3025 86.2295)rotate(-90)scale(0.08 -0.08)">
      <defs>
       <path d="M 18.109375 8.203125 
L 18.109375 -20.796875 
L 9.078125 -20.796875 
L 9.078125 54.6875 
L 18.109375 54.6875 
L 18.109375 46.390625 
Q 20.953125 51.265625 25.265625 53.625 
Q 29.59375 56 35.59375 56 
Q 45.5625 56 51.78125 48.09375 
Q 58.015625 40.1875 58.015625 27.296875 
Q 58.015625 14.40625 51.78125 6.484375 
Q 45.5625 -1.421875 35.59375 -1.421875 
Q 29.59375 -1.421875 25.265625 0.953125 
Q 20.953125 3.328125 18.109375 8.203125 
z
M 48.6875 27.296875 
Q 48.6875 37.203125 44.609375 42.84375 
Q 40.53125 48.484375 33.40625 48.484375 
Q 26.265625 48.484375 22.1875 42.84375 
Q 18.109375 37.203125 18.109375 27.296875 
Q 18.109375 17.390625 22.1875 11.75 
Q 26.265625 6.109375 33.40625 6.109375 
Q 40.53125 6.109375 44.609375 11.75 
Q 48.6875 17.390625 48.6875 27.296875 
z
" id="DejaVuSans-112"/>
      </defs>
      <use xlink:href="#DejaVuSans-112"/>
      <use x="63.476562" xlink:href="#DejaVuSans-114"/>
      <use x="102.339844" xlink:href="#DejaVuSans-101"/>
     </g>
    </g>
   </g>
   <g id="line2d_42">
    <path clip-path="url(#pacfb90d146)" d="M 278.739825 26.437803 
L 284.292291 27.825779 
L 289.844757 29.232813 
L 295.397222 28.71216 
L 300.949688 29.127863 
L 306.502154 29.440144 
L 312.054619 29.35658 
L 317.607085 29.303237 
L 323.159551 29.585818 
L 328.712017 29.719461 
L 334.264482 30.123621 
L 339.816948 30.277297 
L 345.369414 30.11364 
L 350.921879 30.163424 
L 356.474345 30.160352 
L 362.026811 29.954219 
L 367.579276 28.919074 
L 373.131742 28.190014 
L 378.684208 27.457273 
L 384.236673 27.142093 
L 389.789139 27.143013 
L 395.341605 27.037716 
L 400.894071 27.036883 
L 406.446536 26.931586 
L 411.999002 26.826236 
L 417.551468 26.826236 
L 423.103933 26.826236 
L 428.656399 26.720783 
L 434.208865 26.720783 
L 439.76133 26.721096 
" style="fill:none;stroke:#ebac23;stroke-linecap:square;"/>
   </g>
   <g id="line2d_43">
    <path clip-path="url(#pacfb90d146)" d="M 278.739825 25.8745 
L 284.292291 119.991098 
L 289.844757 122.667722 
L 295.397222 90.111592 
L 300.949688 81.641696 
L 306.502154 77.690119 
L 312.054619 67.524723 
L 317.607085 57.748611 
L 323.159551 55.031281 
L 328.712017 51.169013 
L 334.264482 49.717783 
L 339.816948 52.440408 
L 345.369414 52.349831 
L 350.921879 52.676693 
L 356.474345 51.270439 
L 362.026811 50.723366 
L 367.579276 48.354145 
L 373.131742 46.652223 
L 378.684208 43.881515 
L 384.236673 42.345922 
L 389.789139 43.704822 
L 395.341605 46.263911 
L 400.894071 53.095209 
L 406.446536 56.224284 
L 411.999002 56.224284 
L 417.551468 54.215549 
L 423.103933 53.952601 
L 428.656399 55.419436 
L 434.208865 55.160064 
L 439.76133 53.187469 
" style="fill:none;stroke:#b80058;stroke-linecap:square;"/>
   </g>
   <g id="line2d_44">
    <path clip-path="url(#pacfb90d146)" d="M 278.739825 25.8745 
L 284.292291 118.361682 
L 289.844757 122.764062 
L 295.397222 91.41642 
L 300.949688 83.242488 
L 306.502154 77.868235 
L 312.054619 67.478601 
L 317.607085 59.491014 
L 323.159551 53.978604 
L 328.712017 50.290999 
L 334.264482 48.654119 
L 339.816948 49.366255 
L 345.369414 51.213434 
L 350.921879 55.395412 
L 356.474345 55.659262 
L 362.026811 55.42907 
L 367.579276 52.19645 
L 373.131742 50.48538 
L 378.684208 45.266244 
L 384.236673 41.655363 
L 389.789139 40.633932 
L 395.341605 45.80252 
L 400.894071 54.662619 
L 406.446536 57.536958 
L 411.999002 57.27828 
L 417.551468 56.390493 
L 423.103933 56.757367 
L 428.656399 56.687099 
L 434.208865 55.795267 
L 439.76133 54.930584 
" style="fill:none;stroke:#008cf9;stroke-linecap:square;"/>
   </g>
   <g id="line2d_45">
    <path clip-path="url(#pacfb90d146)" d="M 278.739825 33.594279 
L 284.292291 51.988581 
L 289.844757 26.889682 
L 295.397222 26.755101 
L 300.949688 27.099686 
L 306.502154 27.302678 
L 312.054619 27.142718 
L 317.607085 27.126366 
L 323.159551 27.102377 
L 328.712017 27.068059 
L 334.264482 26.511074 
L 339.816948 26.510605 
L 345.369414 26.721096 
L 350.921879 26.086535 
L 356.474345 25.980596 
L 362.026811 25.8745 
L 367.579276 25.8745 
L 373.131742 25.8745 
L 378.684208 25.8745 
L 384.236673 25.980873 
L 389.789139 25.980821 
L 395.341605 25.8745 
" style="fill:none;stroke:#ebac23;stroke-dasharray:1,1.65;stroke-dashoffset:0;"/>
   </g>
   <g id="line2d_46">
    <path clip-path="url(#pacfb90d146)" d="M 278.739825 110.177561 
L 284.292291 133.4745 
L 289.844757 120.125471 
L 295.397222 106.087218 
L 300.949688 56.980372 
L 306.502154 39.72422 
L 312.054619 37.206358 
L 317.607085 36.814436 
L 323.159551 34.928234 
L 328.712017 36.235874 
L 334.264482 36.905898 
L 339.816948 37.641312 
L 345.369414 36.688378 
L 350.921879 36.126359 
L 356.474345 34.383175 
L 362.026811 33.065328 
L 367.579276 31.657773 
L 373.131742 32.897037 
L 378.684208 33.847628 
L 384.236673 32.686859 
L 389.789139 33.187481 
L 395.341605 33.710252 
" style="fill:none;stroke:#b80058;stroke-dasharray:1,1.65;stroke-dashoffset:0;"/>
   </g>
   <g id="line2d_47">
    <path clip-path="url(#pacfb90d146)" d="M 278.739825 96.930305 
L 284.292291 133.086796 
L 289.844757 118.018468 
L 295.397222 101.353498 
L 300.949688 55.543915 
L 306.502154 40.41629 
L 312.054619 38.169117 
L 317.607085 39.832347 
L 323.159551 37.62982 
L 328.712017 36.492208 
L 334.264482 39.653866 
L 339.816948 41.104575 
L 345.369414 40.43594 
L 350.921879 39.561484 
L 356.474345 36.024568 
L 362.026811 35.164745 
L 367.579276 34.101306 
L 373.131742 34.975398 
L 378.684208 33.527223 
L 384.236673 33.549633 
L 389.789139 34.059923 
L 395.341605 34.157947 
" style="fill:none;stroke:#008cf9;stroke-dasharray:1,1.65;stroke-dashoffset:0;"/>
   </g>
   <g id="patch_9">
    <path d="M 270.68875 138.8545 
L 270.68875 20.4945 
" style="fill:none;stroke:#000000;stroke-linecap:square;stroke-linejoin:miter;stroke-width:0.8;"/>
   </g>
   <g id="patch_10">
    <path d="M 447.812406 138.8545 
L 447.812406 20.4945 
" style="fill:none;stroke:#000000;stroke-linecap:square;stroke-linejoin:miter;stroke-width:0.8;"/>
   </g>
   <g id="patch_11">
    <path d="M 270.68875 138.8545 
L 447.812406 138.8545 
" style="fill:none;stroke:#000000;stroke-linecap:square;stroke-linejoin:miter;stroke-width:0.8;"/>
   </g>
   <g id="patch_12">
    <path d="M 270.68875 20.4945 
L 447.812406 20.4945 
" style="fill:none;stroke:#000000;stroke-linecap:square;stroke-linejoin:miter;stroke-width:0.8;"/>
   </g>
   <g id="text_35">
    <!-- BGNN-based-on(AGNN/GAT)-pre -->
    <g transform="translate(282.494078 14.4945)scale(0.096 -0.096)">
     <use xlink:href="#DejaVuSans-66"/>
     <use x="66.853516" xlink:href="#DejaVuSans-71"/>
     <use x="144.34375" xlink:href="#DejaVuSans-78"/>
     <use x="219.148438" xlink:href="#DejaVuSans-78"/>
     <use x="293.953125" xlink:href="#DejaVuSans-45"/>
     <use x="330.037109" xlink:href="#DejaVuSans-98"/>
     <use x="393.513672" xlink:href="#DejaVuSans-97"/>
     <use x="454.792969" xlink:href="#DejaVuSans-115"/>
     <use x="506.892578" xlink:href="#DejaVuSans-101"/>
     <use x="568.416016" xlink:href="#DejaVuSans-100"/>
     <use x="631.892578" xlink:href="#DejaVuSans-45"/>
     <use x="669.851562" xlink:href="#DejaVuSans-111"/>
     <use x="731.033203" xlink:href="#DejaVuSans-110"/>
     <use x="794.412109" xlink:href="#DejaVuSans-40"/>
     <use x="833.425781" xlink:href="#DejaVuSans-65"/>
     <use x="900.083984" xlink:href="#DejaVuSans-71"/>
     <use x="977.574219" xlink:href="#DejaVuSans-78"/>
     <use x="1052.378906" xlink:href="#DejaVuSans-78"/>
     <use x="1127.183594" xlink:href="#DejaVuSans-47"/>
     <use x="1160.875" xlink:href="#DejaVuSans-71"/>
     <use x="1238.365234" xlink:href="#DejaVuSans-65"/>
     <use x="1299.023438" xlink:href="#DejaVuSans-84"/>
     <use x="1360.107422" xlink:href="#DejaVuSans-41"/>
     <use x="1399.121094" xlink:href="#DejaVuSans-45"/>
     <use x="1435.205078" xlink:href="#DejaVuSans-112"/>
     <use x="1498.681641" xlink:href="#DejaVuSans-114"/>
     <use x="1537.544922" xlink:href="#DejaVuSans-101"/>
    </g>
   </g>
   <g id="legend_2">
    <g id="patch_13">
     <path d="M 371.273656 134.8545 
L 442.212406 134.8545 
Q 443.812406 134.8545 443.812406 133.2545 
L 443.812406 63.5995 
Q 443.812406 61.9995 442.212406 61.9995 
L 371.273656 61.9995 
Q 369.673656 61.9995 369.673656 63.5995 
L 369.673656 133.2545 
Q 369.673656 134.8545 371.273656 134.8545 
z
" style="fill:#ffffff;opacity:0.8;stroke:#cccccc;stroke-linejoin:miter;"/>
    </g>
    <g id="line2d_48">
     <path d="M 372.873656 68.47825 
L 388.873656 68.47825 
" style="fill:none;stroke:#ebac23;stroke-linecap:square;"/>
    </g>
    <g id="line2d_49"/>
    <g id="text_36">
     <!-- AGNN-train -->
     <g transform="translate(395.273656 71.27825)scale(0.08 -0.08)">
      <use xlink:href="#DejaVuSans-65"/>
      <use x="66.658203" xlink:href="#DejaVuSans-71"/>
      <use x="144.148438" xlink:href="#DejaVuSans-78"/>
      <use x="218.953125" xlink:href="#DejaVuSans-78"/>
      <use x="293.757812" xlink:href="#DejaVuSans-45"/>
      <use x="329.841797" xlink:href="#DejaVuSans-116"/>
      <use x="369.050781" xlink:href="#DejaVuSans-114"/>
      <use x="410.164062" xlink:href="#DejaVuSans-97"/>
      <use x="471.443359" xlink:href="#DejaVuSans-105"/>
      <use x="499.226562" xlink:href="#DejaVuSans-110"/>
     </g>
    </g>
    <g id="line2d_50">
     <path d="M 372.873656 80.22075 
L 388.873656 80.22075 
" style="fill:none;stroke:#b80058;stroke-linecap:square;"/>
    </g>
    <g id="line2d_51"/>
    <g id="text_37">
     <!-- AGNN-valid -->
     <g transform="translate(395.273656 83.02075)scale(0.08 -0.08)">
      <use xlink:href="#DejaVuSans-65"/>
      <use x="66.658203" xlink:href="#DejaVuSans-71"/>
      <use x="144.148438" xlink:href="#DejaVuSans-78"/>
      <use x="218.953125" xlink:href="#DejaVuSans-78"/>
      <use x="293.757812" xlink:href="#DejaVuSans-45"/>
      <use x="327.216797" xlink:href="#DejaVuSans-118"/>
      <use x="386.396484" xlink:href="#DejaVuSans-97"/>
      <use x="447.675781" xlink:href="#DejaVuSans-108"/>
      <use x="475.458984" xlink:href="#DejaVuSans-105"/>
      <use x="503.242188" xlink:href="#DejaVuSans-100"/>
     </g>
    </g>
    <g id="line2d_52">
     <path d="M 372.873656 91.96325 
L 388.873656 91.96325 
" style="fill:none;stroke:#008cf9;stroke-linecap:square;"/>
    </g>
    <g id="line2d_53"/>
    <g id="text_38">
     <!-- AGNN-test -->
     <g transform="translate(395.273656 94.76325)scale(0.08 -0.08)">
      <use xlink:href="#DejaVuSans-65"/>
      <use x="66.658203" xlink:href="#DejaVuSans-71"/>
      <use x="144.148438" xlink:href="#DejaVuSans-78"/>
      <use x="218.953125" xlink:href="#DejaVuSans-78"/>
      <use x="293.757812" xlink:href="#DejaVuSans-45"/>
      <use x="329.841797" xlink:href="#DejaVuSans-116"/>
      <use x="369.050781" xlink:href="#DejaVuSans-101"/>
      <use x="430.574219" xlink:href="#DejaVuSans-115"/>
      <use x="482.673828" xlink:href="#DejaVuSans-116"/>
     </g>
    </g>
    <g id="line2d_54">
     <path d="M 372.873656 103.70575 
L 388.873656 103.70575 
" style="fill:none;stroke:#ebac23;stroke-dasharray:1,1.65;stroke-dashoffset:0;"/>
    </g>
    <g id="line2d_55"/>
    <g id="text_39">
     <!-- GAT-train -->
     <g transform="translate(395.273656 106.50575)scale(0.08 -0.08)">
      <use xlink:href="#DejaVuSans-71"/>
      <use x="77.490234" xlink:href="#DejaVuSans-65"/>
      <use x="138.148438" xlink:href="#DejaVuSans-84"/>
      <use x="190.107422" xlink:href="#DejaVuSans-45"/>
      <use x="226.191406" xlink:href="#DejaVuSans-116"/>
      <use x="265.400391" xlink:href="#DejaVuSans-114"/>
      <use x="306.513672" xlink:href="#DejaVuSans-97"/>
      <use x="367.792969" xlink:href="#DejaVuSans-105"/>
      <use x="395.576172" xlink:href="#DejaVuSans-110"/>
     </g>
    </g>
    <g id="line2d_56">
     <path d="M 372.873656 115.44825 
L 388.873656 115.44825 
" style="fill:none;stroke:#b80058;stroke-dasharray:1,1.65;stroke-dashoffset:0;"/>
    </g>
    <g id="line2d_57"/>
    <g id="text_40">
     <!-- GAT-valid -->
     <g transform="translate(395.273656 118.24825)scale(0.08 -0.08)">
      <use xlink:href="#DejaVuSans-71"/>
      <use x="77.490234" xlink:href="#DejaVuSans-65"/>
      <use x="138.148438" xlink:href="#DejaVuSans-84"/>
      <use x="190.107422" xlink:href="#DejaVuSans-45"/>
      <use x="223.566406" xlink:href="#DejaVuSans-118"/>
      <use x="282.746094" xlink:href="#DejaVuSans-97"/>
      <use x="344.025391" xlink:href="#DejaVuSans-108"/>
      <use x="371.808594" xlink:href="#DejaVuSans-105"/>
      <use x="399.591797" xlink:href="#DejaVuSans-100"/>
     </g>
    </g>
    <g id="line2d_58">
     <path d="M 372.873656 127.19075 
L 388.873656 127.19075 
" style="fill:none;stroke:#008cf9;stroke-dasharray:1,1.65;stroke-dashoffset:0;"/>
    </g>
    <g id="line2d_59"/>
    <g id="text_41">
     <!-- GAT-test -->
     <g transform="translate(395.273656 129.99075)scale(0.08 -0.08)">
      <use xlink:href="#DejaVuSans-71"/>
      <use x="77.490234" xlink:href="#DejaVuSans-65"/>
      <use x="138.148438" xlink:href="#DejaVuSans-84"/>
      <use x="190.107422" xlink:href="#DejaVuSans-45"/>
      <use x="226.191406" xlink:href="#DejaVuSans-116"/>
      <use x="265.400391" xlink:href="#DejaVuSans-101"/>
      <use x="326.923828" xlink:href="#DejaVuSans-115"/>
      <use x="379.023438" xlink:href="#DejaVuSans-116"/>
     </g>
    </g>
   </g>
  </g>
  <g id="axes_3">
   <g id="patch_14">
    <path d="M 50.14375 310.2145 
L 227.267406 310.2145 
L 227.267406 191.8545 
L 50.14375 191.8545 
z
" style="fill:#ffffff;"/>
   </g>
   <g id="matplotlib.axis_5">
    <g id="xtick_15">
     <g id="line2d_60">
      <g>
       <use style="stroke:#000000;stroke-width:0.8;" x="58.194825" xlink:href="#m799a967eae" y="310.2145"/>
      </g>
     </g>
     <g id="text_42">
      <!-- 0 -->
      <g transform="translate(55.649825 323.29325)scale(0.08 -0.08)">
       <use xlink:href="#DejaVuSans-48"/>
      </g>
     </g>
    </g>
    <g id="xtick_16">
     <g id="line2d_61">
      <g>
       <use style="stroke:#000000;stroke-width:0.8;" x="85.957154" xlink:href="#m799a967eae" y="310.2145"/>
      </g>
     </g>
     <g id="text_43">
      <!-- 5 -->
      <g transform="translate(83.412154 323.29325)scale(0.08 -0.08)">
       <use xlink:href="#DejaVuSans-53"/>
      </g>
     </g>
    </g>
    <g id="xtick_17">
     <g id="line2d_62">
      <g>
       <use style="stroke:#000000;stroke-width:0.8;" x="113.719482" xlink:href="#m799a967eae" y="310.2145"/>
      </g>
     </g>
     <g id="text_44">
      <!-- 10 -->
      <g transform="translate(108.629482 323.29325)scale(0.08 -0.08)">
       <use xlink:href="#DejaVuSans-49"/>
       <use x="63.623047" xlink:href="#DejaVuSans-48"/>
      </g>
     </g>
    </g>
    <g id="xtick_18">
     <g id="line2d_63">
      <g>
       <use style="stroke:#000000;stroke-width:0.8;" x="141.481811" xlink:href="#m799a967eae" y="310.2145"/>
      </g>
     </g>
     <g id="text_45">
      <!-- 15 -->
      <g transform="translate(136.391811 323.29325)scale(0.08 -0.08)">
       <use xlink:href="#DejaVuSans-49"/>
       <use x="63.623047" xlink:href="#DejaVuSans-53"/>
      </g>
     </g>
    </g>
    <g id="xtick_19">
     <g id="line2d_64">
      <g>
       <use style="stroke:#000000;stroke-width:0.8;" x="169.244139" xlink:href="#m799a967eae" y="310.2145"/>
      </g>
     </g>
     <g id="text_46">
      <!-- 20 -->
      <g transform="translate(164.154139 323.29325)scale(0.08 -0.08)">
       <use xlink:href="#DejaVuSans-50"/>
       <use x="63.623047" xlink:href="#DejaVuSans-48"/>
      </g>
     </g>
    </g>
    <g id="xtick_20">
     <g id="line2d_65">
      <g>
       <use style="stroke:#000000;stroke-width:0.8;" x="197.006468" xlink:href="#m799a967eae" y="310.2145"/>
      </g>
     </g>
     <g id="text_47">
      <!-- 25 -->
      <g transform="translate(191.916468 323.29325)scale(0.08 -0.08)">
       <use xlink:href="#DejaVuSans-50"/>
       <use x="63.623047" xlink:href="#DejaVuSans-53"/>
      </g>
     </g>
    </g>
    <g id="xtick_21">
     <g id="line2d_66">
      <g>
       <use style="stroke:#000000;stroke-width:0.8;" x="224.768796" xlink:href="#m799a967eae" y="310.2145"/>
      </g>
     </g>
     <g id="text_48">
      <!-- 30 -->
      <g transform="translate(219.678796 323.29325)scale(0.08 -0.08)">
       <use xlink:href="#DejaVuSans-51"/>
       <use x="63.623047" xlink:href="#DejaVuSans-48"/>
      </g>
     </g>
    </g>
    <g id="text_49">
     <!-- Iteration -->
     <g transform="translate(121.738703 335.03575)scale(0.08 -0.08)">
      <use xlink:href="#DejaVuSans-73"/>
      <use x="29.492188" xlink:href="#DejaVuSans-116"/>
      <use x="68.701172" xlink:href="#DejaVuSans-101"/>
      <use x="130.224609" xlink:href="#DejaVuSans-114"/>
      <use x="171.337891" xlink:href="#DejaVuSans-97"/>
      <use x="232.617188" xlink:href="#DejaVuSans-116"/>
      <use x="271.826172" xlink:href="#DejaVuSans-105"/>
      <use x="299.609375" xlink:href="#DejaVuSans-111"/>
      <use x="360.791016" xlink:href="#DejaVuSans-110"/>
     </g>
    </g>
   </g>
   <g id="matplotlib.axis_6">
    <g id="ytick_10">
     <g id="line2d_67">
      <g>
       <use style="stroke:#000000;stroke-width:0.8;" x="50.14375" xlink:href="#m83efa68e60" y="294.181035"/>
      </g>
     </g>
     <g id="text_50">
      <!-- 0.2 -->
      <g transform="translate(30.42125 297.22041)scale(0.08 -0.08)">
       <use xlink:href="#DejaVuSans-48"/>
       <use x="63.623047" xlink:href="#DejaVuSans-46"/>
       <use x="95.410156" xlink:href="#DejaVuSans-50"/>
      </g>
     </g>
    </g>
    <g id="ytick_11">
     <g id="line2d_68">
      <g>
       <use style="stroke:#000000;stroke-width:0.8;" x="50.14375" xlink:href="#m83efa68e60" y="269.944401"/>
      </g>
     </g>
     <g id="text_51">
      <!-- 0.4 -->
      <g transform="translate(30.42125 272.983776)scale(0.08 -0.08)">
       <use xlink:href="#DejaVuSans-48"/>
       <use x="63.623047" xlink:href="#DejaVuSans-46"/>
       <use x="95.410156" xlink:href="#DejaVuSans-52"/>
      </g>
     </g>
    </g>
    <g id="ytick_12">
     <g id="line2d_69">
      <g>
       <use style="stroke:#000000;stroke-width:0.8;" x="50.14375" xlink:href="#m83efa68e60" y="245.707767"/>
      </g>
     </g>
     <g id="text_52">
      <!-- 0.6 -->
      <g transform="translate(30.42125 248.747142)scale(0.08 -0.08)">
       <use xlink:href="#DejaVuSans-48"/>
       <use x="63.623047" xlink:href="#DejaVuSans-46"/>
       <use x="95.410156" xlink:href="#DejaVuSans-54"/>
      </g>
     </g>
    </g>
    <g id="ytick_13">
     <g id="line2d_70">
      <g>
       <use style="stroke:#000000;stroke-width:0.8;" x="50.14375" xlink:href="#m83efa68e60" y="221.471134"/>
      </g>
     </g>
     <g id="text_53">
      <!-- 0.8 -->
      <g transform="translate(30.42125 224.510509)scale(0.08 -0.08)">
       <use xlink:href="#DejaVuSans-48"/>
       <use x="63.623047" xlink:href="#DejaVuSans-46"/>
       <use x="95.410156" xlink:href="#DejaVuSans-56"/>
      </g>
     </g>
    </g>
    <g id="ytick_14">
     <g id="line2d_71">
      <g>
       <use style="stroke:#000000;stroke-width:0.8;" x="50.14375" xlink:href="#m83efa68e60" y="197.2345"/>
      </g>
     </g>
     <g id="text_54">
      <!-- 1.0 -->
      <g transform="translate(30.42125 200.273875)scale(0.08 -0.08)">
       <use xlink:href="#DejaVuSans-49"/>
       <use x="63.623047" xlink:href="#DejaVuSans-46"/>
       <use x="95.410156" xlink:href="#DejaVuSans-48"/>
      </g>
     </g>
    </g>
    <g id="text_55">
     <!-- recall -->
     <g transform="translate(24.7575 261.92325)rotate(-90)scale(0.08 -0.08)">
      <use xlink:href="#DejaVuSans-114"/>
      <use x="38.863281" xlink:href="#DejaVuSans-101"/>
      <use x="100.386719" xlink:href="#DejaVuSans-99"/>
      <use x="155.367188" xlink:href="#DejaVuSans-97"/>
      <use x="216.646484" xlink:href="#DejaVuSans-108"/>
      <use x="244.429688" xlink:href="#DejaVuSans-108"/>
     </g>
    </g>
   </g>
   <g id="line2d_72">
    <path clip-path="url(#pc372900f33)" d="M 58.194825 295.637881 
L 63.747291 213.701287 
L 69.299757 197.322795 
L 74.852222 197.278647 
L 80.404688 197.278647 
L 85.957154 197.322795 
L 91.509619 198.029147 
L 97.062085 199.839164 
L 102.614551 202.134803 
L 108.167017 202.929443 
L 113.719482 202.134803 
L 119.271948 200.501369 
L 124.824414 198.867934 
L 130.376879 197.322795 
L 135.929345 197.2345 
L 141.481811 197.2345 
L 147.034276 197.2345 
L 152.586742 197.2345 
L 158.139208 197.2345 
L 163.691673 197.2345 
L 169.244139 197.322795 
L 174.796605 197.322795 
L 180.349071 197.2345 
L 185.901536 197.2345 
L 191.454002 197.2345 
L 197.006468 197.2345 
L 202.558933 197.2345 
L 208.111399 197.2345 
L 213.663865 197.2345 
L 219.21633 197.278647 
" style="fill:none;stroke:#ebac23;stroke-linecap:square;"/>
   </g>
   <g id="line2d_73">
    <path clip-path="url(#pc372900f33)" d="M 58.194825 304.8345 
L 63.747291 244.509253 
L 69.299757 226.931037 
L 74.852222 220.538958 
L 80.404688 217.209746 
L 85.957154 216.277572 
L 91.509619 215.478562 
L 97.062085 215.478562 
L 102.614551 215.478562 
L 108.167017 214.812717 
L 113.719482 213.880542 
L 119.271948 212.282523 
L 124.824414 211.883014 
L 130.376879 210.684503 
L 135.929345 211.084004 
L 141.481811 211.350341 
L 147.034276 211.749849 
L 152.586742 212.682024 
L 158.139208 213.347869 
L 163.691673 214.013707 
L 169.244139 214.280044 
L 174.796605 212.282523 
L 180.349071 211.217176 
L 185.901536 210.817668 
L 191.454002 210.817668 
L 197.006468 210.950839 
L 202.558933 211.084004 
L 208.111399 211.084004 
L 213.663865 211.217176 
L 219.21633 211.616677 
" style="fill:none;stroke:#b80058;stroke-linecap:square;"/>
   </g>
   <g id="line2d_74">
    <path clip-path="url(#pc372900f33)" d="M 58.194825 302.486847 
L 63.747291 241.759102 
L 69.299757 223.922032 
L 74.852222 219.02024 
L 80.404688 216.841665 
L 85.957154 216.297024 
L 91.509619 215.480057 
L 97.062085 216.160861 
L 102.614551 216.433179 
L 108.167017 215.752374 
L 113.719482 214.118449 
L 119.271948 212.893003 
L 124.824414 211.25907 
L 130.376879 210.986745 
L 135.929345 210.850583 
L 141.481811 211.122908 
L 147.034276 211.531387 
L 152.586742 212.212191 
L 158.139208 213.437645 
L 163.691673 213.846124 
L 169.244139 213.846124 
L 174.796605 212.756841 
L 180.349071 211.66755 
L 185.901536 211.25907 
L 191.454002 211.395232 
L 197.006468 211.395232 
L 202.558933 211.66755 
L 208.111399 211.395232 
L 213.663865 211.395232 
L 219.21633 211.531387 
" style="fill:none;stroke:#008cf9;stroke-linecap:square;"/>
   </g>
   <g id="line2d_75">
    <path clip-path="url(#pc372900f33)" d="M 58.194825 253.565912 
L 63.747291 215.334722 
L 69.299757 217.453771 
L 74.852222 216.526681 
L 80.404688 213.922017 
L 85.957154 210.920033 
L 91.509619 207.388279 
L 97.062085 205.931435 
L 102.614551 203.72409 
L 108.167017 200.413074 
L 113.719482 197.499385 
L 119.271948 197.41109 
L 124.824414 197.278647 
L 130.376879 197.2345 
L 135.929345 197.278647 
L 141.481811 197.366942 
L 147.034276 197.41109 
L 152.586742 197.455237 
L 158.139208 197.587672 
L 163.691673 197.587672 
L 169.244139 197.543525 
L 174.796605 197.63182 
" style="fill:none;stroke:#ebac23;stroke-dasharray:1,1.65;stroke-dashoffset:0;"/>
   </g>
   <g id="line2d_76">
    <path clip-path="url(#pc372900f33)" d="M 58.194825 289.653312 
L 63.747291 242.511725 
L 69.299757 241.046877 
L 74.852222 233.988953 
L 80.404688 229.328066 
L 85.957154 222.403314 
L 91.509619 219.739948 
L 97.062085 219.473611 
L 102.614551 218.807766 
L 108.167017 217.342918 
L 113.719482 216.94341 
L 119.271948 217.209746 
L 124.824414 218.275093 
L 130.376879 219.873113 
L 135.929345 221.071631 
L 141.481811 223.734997 
L 147.034276 226.398363 
L 152.586742 226.797865 
L 158.139208 228.529056 
L 163.691673 229.461231 
L 169.244139 230.526577 
L 174.796605 231.725096 
" style="fill:none;stroke:#b80058;stroke-dasharray:1,1.65;stroke-dashoffset:0;"/>
   </g>
   <g id="line2d_77">
    <path clip-path="url(#pc372900f33)" d="M 58.194825 288.462278 
L 63.747291 238.491243 
L 69.299757 237.810439 
L 74.852222 230.457749 
L 80.404688 227.18989 
L 85.957154 222.560423 
L 91.509619 219.564882 
L 97.062085 218.339436 
L 102.614551 218.067111 
L 108.167017 217.658632 
L 113.719482 216.977828 
L 119.271948 217.250145 
L 124.824414 217.52247 
L 130.376879 219.02024 
L 135.929345 220.381848 
L 141.481811 223.377382 
L 147.034276 224.738998 
L 152.586742 225.555957 
L 158.139208 227.59837 
L 163.691673 227.870694 
L 169.244139 228.959978 
L 174.796605 230.049269 
" style="fill:none;stroke:#008cf9;stroke-dasharray:1,1.65;stroke-dashoffset:0;"/>
   </g>
   <g id="patch_15">
    <path d="M 50.14375 310.2145 
L 50.14375 191.8545 
" style="fill:none;stroke:#000000;stroke-linecap:square;stroke-linejoin:miter;stroke-width:0.8;"/>
   </g>
   <g id="patch_16">
    <path d="M 227.267406 310.2145 
L 227.267406 191.8545 
" style="fill:none;stroke:#000000;stroke-linecap:square;stroke-linejoin:miter;stroke-width:0.8;"/>
   </g>
   <g id="patch_17">
    <path d="M 50.14375 310.2145 
L 227.267406 310.2145 
" style="fill:none;stroke:#000000;stroke-linecap:square;stroke-linejoin:miter;stroke-width:0.8;"/>
   </g>
   <g id="patch_18">
    <path d="M 50.14375 191.8545 
L 227.267406 191.8545 
" style="fill:none;stroke:#000000;stroke-linecap:square;stroke-linejoin:miter;stroke-width:0.8;"/>
   </g>
   <g id="text_56">
    <!-- BGNN-based-on(AGNN/GAT)-recall -->
    <g transform="translate(56.748578 185.8545)scale(0.096 -0.096)">
     <use xlink:href="#DejaVuSans-66"/>
     <use x="66.853516" xlink:href="#DejaVuSans-71"/>
     <use x="144.34375" xlink:href="#DejaVuSans-78"/>
     <use x="219.148438" xlink:href="#DejaVuSans-78"/>
     <use x="293.953125" xlink:href="#DejaVuSans-45"/>
     <use x="330.037109" xlink:href="#DejaVuSans-98"/>
     <use x="393.513672" xlink:href="#DejaVuSans-97"/>
     <use x="454.792969" xlink:href="#DejaVuSans-115"/>
     <use x="506.892578" xlink:href="#DejaVuSans-101"/>
     <use x="568.416016" xlink:href="#DejaVuSans-100"/>
     <use x="631.892578" xlink:href="#DejaVuSans-45"/>
     <use x="669.851562" xlink:href="#DejaVuSans-111"/>
     <use x="731.033203" xlink:href="#DejaVuSans-110"/>
     <use x="794.412109" xlink:href="#DejaVuSans-40"/>
     <use x="833.425781" xlink:href="#DejaVuSans-65"/>
     <use x="900.083984" xlink:href="#DejaVuSans-71"/>
     <use x="977.574219" xlink:href="#DejaVuSans-78"/>
     <use x="1052.378906" xlink:href="#DejaVuSans-78"/>
     <use x="1127.183594" xlink:href="#DejaVuSans-47"/>
     <use x="1160.875" xlink:href="#DejaVuSans-71"/>
     <use x="1238.365234" xlink:href="#DejaVuSans-65"/>
     <use x="1299.023438" xlink:href="#DejaVuSans-84"/>
     <use x="1360.107422" xlink:href="#DejaVuSans-41"/>
     <use x="1399.121094" xlink:href="#DejaVuSans-45"/>
     <use x="1435.205078" xlink:href="#DejaVuSans-114"/>
     <use x="1474.068359" xlink:href="#DejaVuSans-101"/>
     <use x="1535.591797" xlink:href="#DejaVuSans-99"/>
     <use x="1590.572266" xlink:href="#DejaVuSans-97"/>
     <use x="1651.851562" xlink:href="#DejaVuSans-108"/>
     <use x="1679.634766" xlink:href="#DejaVuSans-108"/>
    </g>
   </g>
   <g id="legend_3">
    <g id="patch_19">
     <path d="M 150.728656 306.2145 
L 221.667406 306.2145 
Q 223.267406 306.2145 223.267406 304.6145 
L 223.267406 234.9595 
Q 223.267406 233.3595 221.667406 233.3595 
L 150.728656 233.3595 
Q 149.128656 233.3595 149.128656 234.9595 
L 149.128656 304.6145 
Q 149.128656 306.2145 150.728656 306.2145 
z
" style="fill:#ffffff;opacity:0.8;stroke:#cccccc;stroke-linejoin:miter;"/>
    </g>
    <g id="line2d_78">
     <path d="M 152.328656 239.83825 
L 168.328656 239.83825 
" style="fill:none;stroke:#ebac23;stroke-linecap:square;"/>
    </g>
    <g id="line2d_79"/>
    <g id="text_57">
     <!-- AGNN-train -->
     <g transform="translate(174.728656 242.63825)scale(0.08 -0.08)">
      <use xlink:href="#DejaVuSans-65"/>
      <use x="66.658203" xlink:href="#DejaVuSans-71"/>
      <use x="144.148438" xlink:href="#DejaVuSans-78"/>
      <use x="218.953125" xlink:href="#DejaVuSans-78"/>
      <use x="293.757812" xlink:href="#DejaVuSans-45"/>
      <use x="329.841797" xlink:href="#DejaVuSans-116"/>
      <use x="369.050781" xlink:href="#DejaVuSans-114"/>
      <use x="410.164062" xlink:href="#DejaVuSans-97"/>
      <use x="471.443359" xlink:href="#DejaVuSans-105"/>
      <use x="499.226562" xlink:href="#DejaVuSans-110"/>
     </g>
    </g>
    <g id="line2d_80">
     <path d="M 152.328656 251.58075 
L 168.328656 251.58075 
" style="fill:none;stroke:#b80058;stroke-linecap:square;"/>
    </g>
    <g id="line2d_81"/>
    <g id="text_58">
     <!-- AGNN-valid -->
     <g transform="translate(174.728656 254.38075)scale(0.08 -0.08)">
      <use xlink:href="#DejaVuSans-65"/>
      <use x="66.658203" xlink:href="#DejaVuSans-71"/>
      <use x="144.148438" xlink:href="#DejaVuSans-78"/>
      <use x="218.953125" xlink:href="#DejaVuSans-78"/>
      <use x="293.757812" xlink:href="#DejaVuSans-45"/>
      <use x="327.216797" xlink:href="#DejaVuSans-118"/>
      <use x="386.396484" xlink:href="#DejaVuSans-97"/>
      <use x="447.675781" xlink:href="#DejaVuSans-108"/>
      <use x="475.458984" xlink:href="#DejaVuSans-105"/>
      <use x="503.242188" xlink:href="#DejaVuSans-100"/>
     </g>
    </g>
    <g id="line2d_82">
     <path d="M 152.328656 263.32325 
L 168.328656 263.32325 
" style="fill:none;stroke:#008cf9;stroke-linecap:square;"/>
    </g>
    <g id="line2d_83"/>
    <g id="text_59">
     <!-- AGNN-test -->
     <g transform="translate(174.728656 266.12325)scale(0.08 -0.08)">
      <use xlink:href="#DejaVuSans-65"/>
      <use x="66.658203" xlink:href="#DejaVuSans-71"/>
      <use x="144.148438" xlink:href="#DejaVuSans-78"/>
      <use x="218.953125" xlink:href="#DejaVuSans-78"/>
      <use x="293.757812" xlink:href="#DejaVuSans-45"/>
      <use x="329.841797" xlink:href="#DejaVuSans-116"/>
      <use x="369.050781" xlink:href="#DejaVuSans-101"/>
      <use x="430.574219" xlink:href="#DejaVuSans-115"/>
      <use x="482.673828" xlink:href="#DejaVuSans-116"/>
     </g>
    </g>
    <g id="line2d_84">
     <path d="M 152.328656 275.06575 
L 168.328656 275.06575 
" style="fill:none;stroke:#ebac23;stroke-dasharray:1,1.65;stroke-dashoffset:0;"/>
    </g>
    <g id="line2d_85"/>
    <g id="text_60">
     <!-- GAT-train -->
     <g transform="translate(174.728656 277.86575)scale(0.08 -0.08)">
      <use xlink:href="#DejaVuSans-71"/>
      <use x="77.490234" xlink:href="#DejaVuSans-65"/>
      <use x="138.148438" xlink:href="#DejaVuSans-84"/>
      <use x="190.107422" xlink:href="#DejaVuSans-45"/>
      <use x="226.191406" xlink:href="#DejaVuSans-116"/>
      <use x="265.400391" xlink:href="#DejaVuSans-114"/>
      <use x="306.513672" xlink:href="#DejaVuSans-97"/>
      <use x="367.792969" xlink:href="#DejaVuSans-105"/>
      <use x="395.576172" xlink:href="#DejaVuSans-110"/>
     </g>
    </g>
    <g id="line2d_86">
     <path d="M 152.328656 286.80825 
L 168.328656 286.80825 
" style="fill:none;stroke:#b80058;stroke-dasharray:1,1.65;stroke-dashoffset:0;"/>
    </g>
    <g id="line2d_87"/>
    <g id="text_61">
     <!-- GAT-valid -->
     <g transform="translate(174.728656 289.60825)scale(0.08 -0.08)">
      <use xlink:href="#DejaVuSans-71"/>
      <use x="77.490234" xlink:href="#DejaVuSans-65"/>
      <use x="138.148438" xlink:href="#DejaVuSans-84"/>
      <use x="190.107422" xlink:href="#DejaVuSans-45"/>
      <use x="223.566406" xlink:href="#DejaVuSans-118"/>
      <use x="282.746094" xlink:href="#DejaVuSans-97"/>
      <use x="344.025391" xlink:href="#DejaVuSans-108"/>
      <use x="371.808594" xlink:href="#DejaVuSans-105"/>
      <use x="399.591797" xlink:href="#DejaVuSans-100"/>
     </g>
    </g>
    <g id="line2d_88">
     <path d="M 152.328656 298.55075 
L 168.328656 298.55075 
" style="fill:none;stroke:#008cf9;stroke-dasharray:1,1.65;stroke-dashoffset:0;"/>
    </g>
    <g id="line2d_89"/>
    <g id="text_62">
     <!-- GAT-test -->
     <g transform="translate(174.728656 301.35075)scale(0.08 -0.08)">
      <use xlink:href="#DejaVuSans-71"/>
      <use x="77.490234" xlink:href="#DejaVuSans-65"/>
      <use x="138.148438" xlink:href="#DejaVuSans-84"/>
      <use x="190.107422" xlink:href="#DejaVuSans-45"/>
      <use x="226.191406" xlink:href="#DejaVuSans-116"/>
      <use x="265.400391" xlink:href="#DejaVuSans-101"/>
      <use x="326.923828" xlink:href="#DejaVuSans-115"/>
      <use x="379.023438" xlink:href="#DejaVuSans-116"/>
     </g>
    </g>
   </g>
  </g>
  <g id="axes_4">
   <g id="patch_20">
    <path d="M 270.68875 310.2145 
L 447.812406 310.2145 
L 447.812406 191.8545 
L 270.68875 191.8545 
z
" style="fill:#ffffff;"/>
   </g>
   <g id="matplotlib.axis_7">
    <g id="xtick_22">
     <g id="line2d_90">
      <g>
       <use style="stroke:#000000;stroke-width:0.8;" x="278.739825" xlink:href="#m799a967eae" y="310.2145"/>
      </g>
     </g>
     <g id="text_63">
      <!-- 0 -->
      <g transform="translate(276.194825 323.29325)scale(0.08 -0.08)">
       <use xlink:href="#DejaVuSans-48"/>
      </g>
     </g>
    </g>
    <g id="xtick_23">
     <g id="line2d_91">
      <g>
       <use style="stroke:#000000;stroke-width:0.8;" x="306.502154" xlink:href="#m799a967eae" y="310.2145"/>
      </g>
     </g>
     <g id="text_64">
      <!-- 5 -->
      <g transform="translate(303.957154 323.29325)scale(0.08 -0.08)">
       <use xlink:href="#DejaVuSans-53"/>
      </g>
     </g>
    </g>
    <g id="xtick_24">
     <g id="line2d_92">
      <g>
       <use style="stroke:#000000;stroke-width:0.8;" x="334.264482" xlink:href="#m799a967eae" y="310.2145"/>
      </g>
     </g>
     <g id="text_65">
      <!-- 10 -->
      <g transform="translate(329.174482 323.29325)scale(0.08 -0.08)">
       <use xlink:href="#DejaVuSans-49"/>
       <use x="63.623047" xlink:href="#DejaVuSans-48"/>
      </g>
     </g>
    </g>
    <g id="xtick_25">
     <g id="line2d_93">
      <g>
       <use style="stroke:#000000;stroke-width:0.8;" x="362.026811" xlink:href="#m799a967eae" y="310.2145"/>
      </g>
     </g>
     <g id="text_66">
      <!-- 15 -->
      <g transform="translate(356.936811 323.29325)scale(0.08 -0.08)">
       <use xlink:href="#DejaVuSans-49"/>
       <use x="63.623047" xlink:href="#DejaVuSans-53"/>
      </g>
     </g>
    </g>
    <g id="xtick_26">
     <g id="line2d_94">
      <g>
       <use style="stroke:#000000;stroke-width:0.8;" x="389.789139" xlink:href="#m799a967eae" y="310.2145"/>
      </g>
     </g>
     <g id="text_67">
      <!-- 20 -->
      <g transform="translate(384.699139 323.29325)scale(0.08 -0.08)">
       <use xlink:href="#DejaVuSans-50"/>
       <use x="63.623047" xlink:href="#DejaVuSans-48"/>
      </g>
     </g>
    </g>
    <g id="xtick_27">
     <g id="line2d_95">
      <g>
       <use style="stroke:#000000;stroke-width:0.8;" x="417.551468" xlink:href="#m799a967eae" y="310.2145"/>
      </g>
     </g>
     <g id="text_68">
      <!-- 25 -->
      <g transform="translate(412.461468 323.29325)scale(0.08 -0.08)">
       <use xlink:href="#DejaVuSans-50"/>
       <use x="63.623047" xlink:href="#DejaVuSans-53"/>
      </g>
     </g>
    </g>
    <g id="xtick_28">
     <g id="line2d_96">
      <g>
       <use style="stroke:#000000;stroke-width:0.8;" x="445.313796" xlink:href="#m799a967eae" y="310.2145"/>
      </g>
     </g>
     <g id="text_69">
      <!-- 30 -->
      <g transform="translate(440.223796 323.29325)scale(0.08 -0.08)">
       <use xlink:href="#DejaVuSans-51"/>
       <use x="63.623047" xlink:href="#DejaVuSans-48"/>
      </g>
     </g>
    </g>
    <g id="text_70">
     <!-- Iteration -->
     <g transform="translate(342.283703 335.03575)scale(0.08 -0.08)">
      <use xlink:href="#DejaVuSans-73"/>
      <use x="29.492188" xlink:href="#DejaVuSans-116"/>
      <use x="68.701172" xlink:href="#DejaVuSans-101"/>
      <use x="130.224609" xlink:href="#DejaVuSans-114"/>
      <use x="171.337891" xlink:href="#DejaVuSans-97"/>
      <use x="232.617188" xlink:href="#DejaVuSans-116"/>
      <use x="271.826172" xlink:href="#DejaVuSans-105"/>
      <use x="299.609375" xlink:href="#DejaVuSans-111"/>
      <use x="360.791016" xlink:href="#DejaVuSans-110"/>
     </g>
    </g>
   </g>
   <g id="matplotlib.axis_8">
    <g id="ytick_15">
     <g id="line2d_97">
      <g>
       <use style="stroke:#000000;stroke-width:0.8;" x="270.68875" xlink:href="#m83efa68e60" y="305.047667"/>
      </g>
     </g>
     <g id="text_71">
      <!-- 0.2 -->
      <g transform="translate(250.96625 308.087042)scale(0.08 -0.08)">
       <use xlink:href="#DejaVuSans-48"/>
       <use x="63.623047" xlink:href="#DejaVuSans-46"/>
       <use x="95.410156" xlink:href="#DejaVuSans-50"/>
      </g>
     </g>
    </g>
    <g id="ytick_16">
     <g id="line2d_98">
      <g>
       <use style="stroke:#000000;stroke-width:0.8;" x="270.68875" xlink:href="#m83efa68e60" y="278.0821"/>
      </g>
     </g>
     <g id="text_72">
      <!-- 0.4 -->
      <g transform="translate(250.96625 281.121475)scale(0.08 -0.08)">
       <use xlink:href="#DejaVuSans-48"/>
       <use x="63.623047" xlink:href="#DejaVuSans-46"/>
       <use x="95.410156" xlink:href="#DejaVuSans-52"/>
      </g>
     </g>
    </g>
    <g id="ytick_17">
     <g id="line2d_99">
      <g>
       <use style="stroke:#000000;stroke-width:0.8;" x="270.68875" xlink:href="#m83efa68e60" y="251.116532"/>
      </g>
     </g>
     <g id="text_73">
      <!-- 0.6 -->
      <g transform="translate(250.96625 254.155907)scale(0.08 -0.08)">
       <use xlink:href="#DejaVuSans-48"/>
       <use x="63.623047" xlink:href="#DejaVuSans-46"/>
       <use x="95.410156" xlink:href="#DejaVuSans-54"/>
      </g>
     </g>
    </g>
    <g id="ytick_18">
     <g id="line2d_100">
      <g>
       <use style="stroke:#000000;stroke-width:0.8;" x="270.68875" xlink:href="#m83efa68e60" y="224.150965"/>
      </g>
     </g>
     <g id="text_74">
      <!-- 0.8 -->
      <g transform="translate(250.96625 227.19034)scale(0.08 -0.08)">
       <use xlink:href="#DejaVuSans-48"/>
       <use x="63.623047" xlink:href="#DejaVuSans-46"/>
       <use x="95.410156" xlink:href="#DejaVuSans-56"/>
      </g>
     </g>
    </g>
    <g id="ytick_19">
     <g id="line2d_101">
      <g>
       <use style="stroke:#000000;stroke-width:0.8;" x="270.68875" xlink:href="#m83efa68e60" y="197.185398"/>
      </g>
     </g>
     <g id="text_75">
      <!-- 1.0 -->
      <g transform="translate(250.96625 200.224773)scale(0.08 -0.08)">
       <use xlink:href="#DejaVuSans-49"/>
       <use x="63.623047" xlink:href="#DejaVuSans-46"/>
       <use x="95.410156" xlink:href="#DejaVuSans-48"/>
      </g>
     </g>
    </g>
    <g id="text_76">
     <!-- f1 -->
     <g transform="translate(245.3025 254.987625)rotate(-90)scale(0.08 -0.08)">
      <defs>
       <path d="M 37.109375 75.984375 
L 37.109375 68.5 
L 28.515625 68.5 
Q 23.6875 68.5 21.796875 66.546875 
Q 19.921875 64.59375 19.921875 59.515625 
L 19.921875 54.6875 
L 34.71875 54.6875 
L 34.71875 47.703125 
L 19.921875 47.703125 
L 19.921875 0 
L 10.890625 0 
L 10.890625 47.703125 
L 2.296875 47.703125 
L 2.296875 54.6875 
L 10.890625 54.6875 
L 10.890625 58.5 
Q 10.890625 67.625 15.140625 71.796875 
Q 19.390625 75.984375 28.609375 75.984375 
z
" id="DejaVuSans-102"/>
      </defs>
      <use xlink:href="#DejaVuSans-102"/>
      <use x="35.205078" xlink:href="#DejaVuSans-49"/>
     </g>
    </g>
   </g>
   <g id="line2d_102">
    <path clip-path="url(#pd417033ef7)" d="M 278.739825 289.357706 
L 284.292291 207.40321 
L 289.844757 198.01586 
L 295.397222 197.869807 
L 300.949688 197.967007 
L 306.502154 198.064391 
L 312.054619 198.434482 
L 317.607085 199.431297 
L 323.159551 200.797077 
L 328.712017 201.283205 
L 334.264482 200.918169 
L 339.816948 200.026743 
L 345.369414 199.07539 
L 350.921879 198.233975 
L 356.474345 198.184848 
L 362.026811 198.136437 
L 367.579276 197.89386 
L 373.131742 197.723537 
L 378.684208 197.552772 
L 384.236673 197.479464 
L 389.789139 197.528599 
L 395.341605 197.504136 
L 400.894071 197.455002 
L 406.446536 197.430539 
L 411.999002 197.406068 
L 417.551468 197.406068 
L 423.103933 197.406068 
L 428.656399 197.381582 
L 434.208865 197.381582 
L 439.76133 197.406149 
" style="fill:none;stroke:#ebac23;stroke-linecap:square;"/>
   </g>
   <g id="line2d_103">
    <path clip-path="url(#pd417033ef7)" d="M 278.739825 304.8345 
L 284.292291 245.505201 
L 289.844757 236.47252 
L 295.397222 225.053214 
L 300.949688 221.235772 
L 306.502154 219.790825 
L 312.054619 216.978001 
L 317.607085 214.778231 
L 323.159551 214.181788 
L 328.712017 212.948471 
L 334.264482 212.081388 
L 339.816948 211.747107 
L 345.369414 211.496734 
L 350.921879 210.885287 
L 356.474345 210.796019 
L 362.026811 210.826445 
L 367.579276 210.531687 
L 373.131742 210.706373 
L 378.684208 210.506477 
L 384.236673 210.582991 
L 389.789139 211.031742 
L 395.341605 210.385859 
L 400.894071 211.283079 
L 406.446536 211.769424 
L 411.999002 211.769424 
L 417.551468 211.385671 
L 423.103933 211.401431 
L 428.656399 211.735165 
L 434.208865 211.751286 
L 439.76133 211.531981 
" style="fill:none;stroke:#b80058;stroke-linecap:square;"/>
   </g>
   <g id="line2d_104">
    <path clip-path="url(#pd417033ef7)" d="M 278.739825 300.682833 
L 284.292291 243.490702 
L 289.844757 235.048966 
L 295.397222 224.5631 
L 300.949688 221.423276 
L 306.502154 219.843657 
L 312.054619 216.968261 
L 317.607085 215.560443 
L 323.159551 214.519283 
L 328.712017 213.320659 
L 334.264482 211.992176 
L 339.816948 211.422848 
L 345.369414 210.883664 
L 350.921879 211.674812 
L 356.474345 211.658442 
L 362.026811 211.759314 
L 367.579276 211.260409 
L 373.131742 211.271884 
L 378.684208 210.85675 
L 384.236673 210.335471 
L 389.789139 210.120619 
L 395.341605 210.566452 
L 400.894071 211.893891 
L 406.446536 212.318356 
L 411.999002 212.335449 
L 417.551468 212.132378 
L 423.103933 212.36974 
L 428.656399 212.200141 
L 434.208865 211.996612 
L 439.76133 211.877192 
" style="fill:none;stroke:#008cf9;stroke-linecap:square;"/>
   </g>
   <g id="line2d_105">
    <path clip-path="url(#pd417033ef7)" d="M 278.739825 238.895186 
L 284.292291 213.435837 
L 289.844757 209.651625 
L 295.397222 209.016141 
L 300.949688 207.398831 
L 306.502154 205.54722 
L 312.054619 203.349981 
L 317.607085 202.472764 
L 323.159551 201.16425 
L 328.712017 199.246685 
L 334.264482 197.480107 
L 339.816948 197.430893 
L 345.369414 197.406149 
L 350.921879 197.2345 
L 356.474345 197.234516 
L 362.026811 197.259115 
L 367.579276 197.283707 
L 373.131742 197.308306 
L 378.684208 197.382152 
L 384.236673 197.406711 
L 389.789139 197.38208 
L 395.341605 197.406792 
" style="fill:none;stroke:#ebac23;stroke-dasharray:1,1.65;stroke-dashoffset:0;"/>
   </g>
   <g id="line2d_106">
    <path clip-path="url(#pd417033ef7)" d="M 278.739825 284.03496 
L 284.292291 247.281294 
L 289.844757 243.449105 
L 295.397222 236.236371 
L 300.949688 223.27324 
L 306.502154 215.383514 
L 312.054619 213.146576 
L 317.607085 212.896604 
L 323.159551 212.095017 
L 328.712017 211.407072 
L 334.264482 211.286077 
L 339.816948 211.602943 
L 345.369414 212.095395 
L 350.921879 213.023852 
L 356.474345 213.481483 
L 362.026811 215.036311 
L 367.579276 216.63734 
L 373.131742 217.138246 
L 378.684208 218.535939 
L 384.236673 219.00822 
L 389.789139 219.8691 
L 395.341605 220.837908 
" style="fill:none;stroke:#b80058;stroke-dasharray:1,1.65;stroke-dashoffset:0;"/>
   </g>
   <g id="line2d_107">
    <path clip-path="url(#pd417033ef7)" d="M 278.739825 281.781017 
L 284.292291 244.994056 
L 289.844757 241.104263 
L 295.397222 233.149692 
L 300.949688 221.57968 
L 306.502154 215.619863 
L 312.054619 213.220751 
L 317.607085 212.761176 
L 323.159551 212.148194 
L 328.712017 211.660282 
L 334.264482 211.861633 
L 339.816948 212.327357 
L 345.369414 212.363625 
L 350.921879 213.143281 
L 356.474345 213.338363 
L 362.026811 215.179181 
L 367.579276 215.916172 
L 373.131742 216.639855 
L 378.684208 217.816194 
L 384.236673 218.013857 
L 389.789139 218.881832 
L 395.341605 219.685549 
" style="fill:none;stroke:#008cf9;stroke-dasharray:1,1.65;stroke-dashoffset:0;"/>
   </g>
   <g id="patch_21">
    <path d="M 270.68875 310.2145 
L 270.68875 191.8545 
" style="fill:none;stroke:#000000;stroke-linecap:square;stroke-linejoin:miter;stroke-width:0.8;"/>
   </g>
   <g id="patch_22">
    <path d="M 447.812406 310.2145 
L 447.812406 191.8545 
" style="fill:none;stroke:#000000;stroke-linecap:square;stroke-linejoin:miter;stroke-width:0.8;"/>
   </g>
   <g id="patch_23">
    <path d="M 270.68875 310.2145 
L 447.812406 310.2145 
" style="fill:none;stroke:#000000;stroke-linecap:square;stroke-linejoin:miter;stroke-width:0.8;"/>
   </g>
   <g id="patch_24">
    <path d="M 270.68875 191.8545 
L 447.812406 191.8545 
" style="fill:none;stroke:#000000;stroke-linecap:square;stroke-linejoin:miter;stroke-width:0.8;"/>
   </g>
   <g id="text_77">
    <!-- BGNN-based-on(AGNN/GAT)-f1 -->
    <g transform="translate(285.616328 185.8545)scale(0.096 -0.096)">
     <use xlink:href="#DejaVuSans-66"/>
     <use x="66.853516" xlink:href="#DejaVuSans-71"/>
     <use x="144.34375" xlink:href="#DejaVuSans-78"/>
     <use x="219.148438" xlink:href="#DejaVuSans-78"/>
     <use x="293.953125" xlink:href="#DejaVuSans-45"/>
     <use x="330.037109" xlink:href="#DejaVuSans-98"/>
     <use x="393.513672" xlink:href="#DejaVuSans-97"/>
     <use x="454.792969" xlink:href="#DejaVuSans-115"/>
     <use x="506.892578" xlink:href="#DejaVuSans-101"/>
     <use x="568.416016" xlink:href="#DejaVuSans-100"/>
     <use x="631.892578" xlink:href="#DejaVuSans-45"/>
     <use x="669.851562" xlink:href="#DejaVuSans-111"/>
     <use x="731.033203" xlink:href="#DejaVuSans-110"/>
     <use x="794.412109" xlink:href="#DejaVuSans-40"/>
     <use x="833.425781" xlink:href="#DejaVuSans-65"/>
     <use x="900.083984" xlink:href="#DejaVuSans-71"/>
     <use x="977.574219" xlink:href="#DejaVuSans-78"/>
     <use x="1052.378906" xlink:href="#DejaVuSans-78"/>
     <use x="1127.183594" xlink:href="#DejaVuSans-47"/>
     <use x="1160.875" xlink:href="#DejaVuSans-71"/>
     <use x="1238.365234" xlink:href="#DejaVuSans-65"/>
     <use x="1299.023438" xlink:href="#DejaVuSans-84"/>
     <use x="1360.107422" xlink:href="#DejaVuSans-41"/>
     <use x="1399.121094" xlink:href="#DejaVuSans-45"/>
     <use x="1435.205078" xlink:href="#DejaVuSans-102"/>
     <use x="1470.410156" xlink:href="#DejaVuSans-49"/>
    </g>
   </g>
   <g id="legend_4">
    <g id="patch_25">
     <path d="M 371.273656 306.2145 
L 442.212406 306.2145 
Q 443.812406 306.2145 443.812406 304.6145 
L 443.812406 234.9595 
Q 443.812406 233.3595 442.212406 233.3595 
L 371.273656 233.3595 
Q 369.673656 233.3595 369.673656 234.9595 
L 369.673656 304.6145 
Q 369.673656 306.2145 371.273656 306.2145 
z
" style="fill:#ffffff;opacity:0.8;stroke:#cccccc;stroke-linejoin:miter;"/>
    </g>
    <g id="line2d_108">
     <path d="M 372.873656 239.83825 
L 388.873656 239.83825 
" style="fill:none;stroke:#ebac23;stroke-linecap:square;"/>
    </g>
    <g id="line2d_109"/>
    <g id="text_78">
     <!-- AGNN-train -->
     <g transform="translate(395.273656 242.63825)scale(0.08 -0.08)">
      <use xlink:href="#DejaVuSans-65"/>
      <use x="66.658203" xlink:href="#DejaVuSans-71"/>
      <use x="144.148438" xlink:href="#DejaVuSans-78"/>
      <use x="218.953125" xlink:href="#DejaVuSans-78"/>
      <use x="293.757812" xlink:href="#DejaVuSans-45"/>
      <use x="329.841797" xlink:href="#DejaVuSans-116"/>
      <use x="369.050781" xlink:href="#DejaVuSans-114"/>
      <use x="410.164062" xlink:href="#DejaVuSans-97"/>
      <use x="471.443359" xlink:href="#DejaVuSans-105"/>
      <use x="499.226562" xlink:href="#DejaVuSans-110"/>
     </g>
    </g>
    <g id="line2d_110">
     <path d="M 372.873656 251.58075 
L 388.873656 251.58075 
" style="fill:none;stroke:#b80058;stroke-linecap:square;"/>
    </g>
    <g id="line2d_111"/>
    <g id="text_79">
     <!-- AGNN-valid -->
     <g transform="translate(395.273656 254.38075)scale(0.08 -0.08)">
      <use xlink:href="#DejaVuSans-65"/>
      <use x="66.658203" xlink:href="#DejaVuSans-71"/>
      <use x="144.148438" xlink:href="#DejaVuSans-78"/>
      <use x="218.953125" xlink:href="#DejaVuSans-78"/>
      <use x="293.757812" xlink:href="#DejaVuSans-45"/>
      <use x="327.216797" xlink:href="#DejaVuSans-118"/>
      <use x="386.396484" xlink:href="#DejaVuSans-97"/>
      <use x="447.675781" xlink:href="#DejaVuSans-108"/>
      <use x="475.458984" xlink:href="#DejaVuSans-105"/>
      <use x="503.242188" xlink:href="#DejaVuSans-100"/>
     </g>
    </g>
    <g id="line2d_112">
     <path d="M 372.873656 263.32325 
L 388.873656 263.32325 
" style="fill:none;stroke:#008cf9;stroke-linecap:square;"/>
    </g>
    <g id="line2d_113"/>
    <g id="text_80">
     <!-- AGNN-test -->
     <g transform="translate(395.273656 266.12325)scale(0.08 -0.08)">
      <use xlink:href="#DejaVuSans-65"/>
      <use x="66.658203" xlink:href="#DejaVuSans-71"/>
      <use x="144.148438" xlink:href="#DejaVuSans-78"/>
      <use x="218.953125" xlink:href="#DejaVuSans-78"/>
      <use x="293.757812" xlink:href="#DejaVuSans-45"/>
      <use x="329.841797" xlink:href="#DejaVuSans-116"/>
      <use x="369.050781" xlink:href="#DejaVuSans-101"/>
      <use x="430.574219" xlink:href="#DejaVuSans-115"/>
      <use x="482.673828" xlink:href="#DejaVuSans-116"/>
     </g>
    </g>
    <g id="line2d_114">
     <path d="M 372.873656 275.06575 
L 388.873656 275.06575 
" style="fill:none;stroke:#ebac23;stroke-dasharray:1,1.65;stroke-dashoffset:0;"/>
    </g>
    <g id="line2d_115"/>
    <g id="text_81">
     <!-- GAT-train -->
     <g transform="translate(395.273656 277.86575)scale(0.08 -0.08)">
      <use xlink:href="#DejaVuSans-71"/>
      <use x="77.490234" xlink:href="#DejaVuSans-65"/>
      <use x="138.148438" xlink:href="#DejaVuSans-84"/>
      <use x="190.107422" xlink:href="#DejaVuSans-45"/>
      <use x="226.191406" xlink:href="#DejaVuSans-116"/>
      <use x="265.400391" xlink:href="#DejaVuSans-114"/>
      <use x="306.513672" xlink:href="#DejaVuSans-97"/>
      <use x="367.792969" xlink:href="#DejaVuSans-105"/>
      <use x="395.576172" xlink:href="#DejaVuSans-110"/>
     </g>
    </g>
    <g id="line2d_116">
     <path d="M 372.873656 286.80825 
L 388.873656 286.80825 
" style="fill:none;stroke:#b80058;stroke-dasharray:1,1.65;stroke-dashoffset:0;"/>
    </g>
    <g id="line2d_117"/>
    <g id="text_82">
     <!-- GAT-valid -->
     <g transform="translate(395.273656 289.60825)scale(0.08 -0.08)">
      <use xlink:href="#DejaVuSans-71"/>
      <use x="77.490234" xlink:href="#DejaVuSans-65"/>
      <use x="138.148438" xlink:href="#DejaVuSans-84"/>
      <use x="190.107422" xlink:href="#DejaVuSans-45"/>
      <use x="223.566406" xlink:href="#DejaVuSans-118"/>
      <use x="282.746094" xlink:href="#DejaVuSans-97"/>
      <use x="344.025391" xlink:href="#DejaVuSans-108"/>
      <use x="371.808594" xlink:href="#DejaVuSans-105"/>
      <use x="399.591797" xlink:href="#DejaVuSans-100"/>
     </g>
    </g>
    <g id="line2d_118">
     <path d="M 372.873656 298.55075 
L 388.873656 298.55075 
" style="fill:none;stroke:#008cf9;stroke-dasharray:1,1.65;stroke-dashoffset:0;"/>
    </g>
    <g id="line2d_119"/>
    <g id="text_83">
     <!-- GAT-test -->
     <g transform="translate(395.273656 301.35075)scale(0.08 -0.08)">
      <use xlink:href="#DejaVuSans-71"/>
      <use x="77.490234" xlink:href="#DejaVuSans-65"/>
      <use x="138.148438" xlink:href="#DejaVuSans-84"/>
      <use x="190.107422" xlink:href="#DejaVuSans-45"/>
      <use x="226.191406" xlink:href="#DejaVuSans-116"/>
      <use x="265.400391" xlink:href="#DejaVuSans-101"/>
      <use x="326.923828" xlink:href="#DejaVuSans-115"/>
      <use x="379.023438" xlink:href="#DejaVuSans-116"/>
     </g>
    </g>
   </g>
  </g>
 </g>
 <defs>
  <clipPath id="pf2dba26b35">
   <rect height="118.36" width="177.123656" x="50.14375" y="20.4945"/>
  </clipPath>
  <clipPath id="pacfb90d146">
   <rect height="118.36" width="177.123656" x="270.68875" y="20.4945"/>
  </clipPath>
  <clipPath id="pc372900f33">
   <rect height="118.36" width="177.123656" x="50.14375" y="191.8545"/>
  </clipPath>
  <clipPath id="pd417033ef7">
   <rect height="118.36" width="177.123656" x="270.68875" y="191.8545"/>
  </clipPath>
 </defs>
</svg>
